<?xml version="1.0" encoding="UTF-8" standalone="no"?>
<svg
   xmlns:dc="http://purl.org/dc/elements/1.1/"
   xmlns:cc="http://creativecommons.org/ns#"
   xmlns:rdf="http://www.w3.org/1999/02/22-rdf-syntax-ns#"
   xmlns:svg="http://www.w3.org/2000/svg"
   xmlns="http://www.w3.org/2000/svg"
   xmlns:sodipodi="http://sodipodi.sourceforge.net/DTD/sodipodi-0.dtd"
   xmlns:inkscape="http://www.inkscape.org/namespaces/inkscape"
   version="1.1"
   viewBox="0 0 696.34906 452.01575"
   stroke-miterlimit="10"
   id="svg103"
   sodipodi:docname="diagrama-funcionamento.svg"
   width="696.34906"
   height="452.01575"
   style="fill:none;stroke:none;stroke-linecap:square;stroke-miterlimit:10"
   inkscape:version="0.92.1 r15371"
   inkscape:export-filename="diagrama-funcionamento.png"
   inkscape:export-xdpi="110.29"
   inkscape:export-ydpi="110.29">
  <metadata
     id="metadata109">
    <rdf:RDF>
      <cc:Work
         rdf:about="">
        <dc:format>image/svg+xml</dc:format>
        <dc:type
           rdf:resource="http://purl.org/dc/dcmitype/StillImage" />
        <dc:title />
      </cc:Work>
    </rdf:RDF>
  </metadata>
  <defs
     id="defs107" />
  <sodipodi:namedview
     pagecolor="#ffffff"
     bordercolor="#666666"
     borderopacity="1"
     objecttolerance="10"
     gridtolerance="10"
     guidetolerance="10"
     inkscape:pageopacity="1"
     inkscape:pageshadow="2"
     inkscape:window-width="1366"
     inkscape:window-height="704"
     id="namedview105"
     showgrid="false"
     fit-margin-top="10"
     fit-margin-left="10"
     fit-margin-right="10"
     fit-margin-bottom="10"
     inkscape:zoom="0.39333333"
     inkscape:cx="913.40847"
     inkscape:cy="186.00791"
     inkscape:window-x="0"
     inkscape:window-y="27"
     inkscape:window-maximized="1"
     inkscape:current-layer="svg103" />
  <clipPath
     id="p.0">
    <path
       d="M 0,0 H 800 V 600 H 0 Z"
       id="path2"
       inkscape:connector-curvature="0"
       style="clip-rule:nonzero" />
  </clipPath>
  <path
     style="fill:#cfe2f3;fill-rule:evenodd"
     inkscape:connector-curvature="0"
     id="path7"
     d="m 17.25197,368.51182 v 0 c 0,-40.04282 35.37303,-72.50394 79.00787,-72.50394 v 0 c 43.63484,0 79.00787,32.46112 79.00787,72.50394 v 0 c 0,40.04282 -35.37303,72.50394 -79.00787,72.50394 v 0 c -43.63484,0 -79.00787,-32.46112 -79.00787,-72.50394 z" />
  <path
     style="fill-rule:evenodd;stroke:#000000;stroke-width:2;stroke-linecap:butt;stroke-linejoin:round"
     inkscape:connector-curvature="0"
     id="path9"
     d="m 17.25197,368.51182 v 0 c 0,-40.04282 35.37303,-72.50394 79.00787,-72.50394 v 0 c 43.63484,0 79.00787,32.46112 79.00787,72.50394 v 0 c 0,40.04282 -35.37303,72.50394 -79.00787,72.50394 v 0 c -43.63484,0 -79.00787,-32.46112 -79.00787,-72.50394 z" />
  <path
     style="fill:#000000;fill-opacity:0;fill-rule:evenodd"
     inkscape:connector-curvature="0"
     id="path11"
     d="M 23.502624,328.84254 H 169.01443 v 61.00787 H 23.502624 Z" />
  <path
     style="fill:#000000;fill-rule:nonzero"
     inkscape:connector-curvature="0"
     id="path13"
     d="m 73.77807,353.20252 v -9.51563 h -3.40625 v -1.9375 h 9.10937 v 1.9375 h -3.39063 v 9.51563 z m 9.27343,0 H 80.864 v -8.29688 h 2.03125 v 1.17188 q 0.53125,-0.82813 0.9375,-1.09375 0.42187,-0.26563 0.95312,-0.26563 0.75,0 1.45313,0.40625 l -0.6875,1.92188 q -0.54688,-0.35938 -1.03125,-0.35938 -0.45313,0 -0.78125,0.25 -0.3125,0.25 -0.5,0.92188 -0.1875,0.65625 -0.1875,2.78125 z m 4.13281,-9.42188 v -2.03125 h 2.1875 v 2.03125 z m 0,9.42188 v -8.29688 h 2.1875 v 8.29688 z m 4.44531,0 v -11.45313 h 2.1875 v 11.45313 z m 6.63282,-11.45313 v 4.20313 q 1.0625,-1.23438 2.53125,-1.23438 0.76562,0 1.375,0.28125 0.60937,0.28125 0.90625,0.71875 0.3125,0.4375 0.42187,0.96875 0.125,0.53125 0.125,1.64063 v 4.875 h -2.20312 v -4.39063 q 0,-1.29687 -0.125,-1.64062 -0.125,-0.35938 -0.4375,-0.5625 -0.3125,-0.21875 -0.79688,-0.21875 -0.54687,0 -0.98437,0.26562 -0.42188,0.26563 -0.625,0.8125 -0.1875,0.53125 -0.1875,1.57813 v 4.15625 h -2.20313 v -11.45313 z m 9.22656,5.6875 -2,-0.35937 q 0.34375,-1.20313 1.15625,-1.78125 0.82812,-0.57813 2.4375,-0.57813 1.46875,0 2.1875,0.34375 0.71875,0.34375 1.01562,0.89063 0.29688,0.53125 0.29688,1.95312 l -0.0312,2.5625 q 0,1.09375 0.10937,1.625 0.10938,0.51563 0.39063,1.10938 h -2.17188 q -0.0781,-0.21875 -0.20312,-0.65625 -0.0625,-0.1875 -0.0781,-0.25 -0.5625,0.54687 -1.20312,0.82812 -0.64063,0.26563 -1.375,0.26563 -1.28125,0 -2.01563,-0.6875 -0.73437,-0.70313 -0.73437,-1.76563 0,-0.70312 0.32812,-1.25 0.34375,-0.5625 0.9375,-0.84375 0.60938,-0.29687 1.75,-0.51562 1.54688,-0.29688 2.14063,-0.54688 v -0.21875 q 0,-0.625 -0.3125,-0.89062 -0.3125,-0.28125 -1.1875,-0.28125 -0.57813,0 -0.90625,0.23437 -0.32813,0.23438 -0.53125,0.8125 z m 2.9375,1.78125 q -0.42188,0.14063 -1.34375,0.34375 -0.90625,0.1875 -1.1875,0.375 -0.4375,0.29688 -0.4375,0.76563 0,0.46875 0.34375,0.8125 0.34375,0.32812 0.875,0.32812 0.59375,0 1.14062,-0.39062 0.39063,-0.29688 0.51563,-0.73438 0.0937,-0.28125 0.0937,-1.0625 z m 3.53906,1.60938 2.20313,-0.32813 q 0.14062,0.64063 0.5625,0.96875 0.4375,0.32813 1.21875,0.32813 0.84375,0 1.28125,-0.3125 0.28125,-0.21875 0.28125,-0.57813 0,-0.25 -0.15625,-0.42187 -0.15625,-0.15625 -0.73438,-0.28125 -2.65625,-0.59375 -3.35937,-1.07813 -0.98438,-0.67187 -0.98438,-1.85937 0,-1.07813 0.84375,-1.8125 0.85938,-0.73438 2.64063,-0.73438 1.70312,0 2.53125,0.5625 0.82812,0.54688 1.14062,1.625 l -2.0625,0.39063 q -0.14062,-0.48438 -0.51562,-0.73438 -0.35938,-0.26562 -1.04688,-0.26562 -0.875,0 -1.25,0.23437 -0.25,0.17188 -0.25,0.45313 0,0.23437 0.21875,0.39062 0.29688,0.21875 2.04688,0.625 1.76562,0.39063 2.45312,0.96875 0.6875,0.59375 0.6875,1.64063 0,1.14062 -0.95312,1.96875 -0.95313,0.8125 -2.8125,0.8125 -1.70313,0 -2.6875,-0.6875 -0.98438,-0.6875 -1.29688,-1.875 z" />
  <path
     style="fill:#000000;fill-rule:nonzero"
     inkscape:connector-curvature="0"
     id="path15"
     d="M 46.81322,375.57752 H 45.2976 q -1.1875,-1.8125 -1.8125,-3.75 -0.625,-1.95313 -0.625,-3.78125 0,-2.25 0.765625,-4.26563 0.671875,-1.75 1.703125,-3.23437 h 1.5 q -1.0625,2.375 -1.46875,4.03125 -0.40625,1.65625 -0.40625,3.51562 0,1.28125 0.234375,2.625 0.25,1.34375 0.656245,2.5625 0.28125,0.79688 0.96875,2.29688 z m 1.625,-11.67188 h 2.04688 v 1.21875 q 0.39062,-0.625 1.0625,-1.01562 0.6875,-0.39063 1.51562,-0.39063 1.45313,0 2.45313,1.14063 1.01562,1.125 1.01562,3.14062 0,2.07813 -1.01562,3.23438 -1.01563,1.15625 -2.46875,1.15625 -0.6875,0 -1.25,-0.26563 -0.54688,-0.28125 -1.17188,-0.95312 v 4.1875 h -2.1875 z m 2.17188,4 q 0,1.40625 0.54687,2.07813 0.5625,0.65625 1.35938,0.65625 0.76562,0 1.26562,-0.60938 0.51563,-0.60937 0.51563,-2.01562 0,-1.29688 -0.53125,-1.92188 -0.51563,-0.64062 -1.29688,-0.64062 -0.79687,0 -1.32812,0.625 -0.53125,0.60937 -0.53125,1.82812 z m 9.75781,4.29688 h -2.1875 v -8.29688 h 2.03125 v 1.17188 q 0.53125,-0.82813 0.9375,-1.09375 0.42188,-0.26563 0.95313,-0.26563 0.75,0 1.45312,0.40625 l -0.6875,1.92188 q -0.54687,-0.35938 -1.03125,-0.35938 -0.45312,0 -0.78125,0.25 -0.3125,0.25 -0.5,0.92188 -0.1875,0.65625 -0.1875,2.78125 z m 3.61719,-4.26563 q 0,-1.09375 0.53125,-2.10937 0.54687,-1.03125 1.53125,-1.5625 1,-0.54688 2.21875,-0.54688 1.875,0 3.07812,1.21875 1.20313,1.21875 1.20313,3.09375 0,1.875 -1.21875,3.125 -1.20313,1.23438 -3.04688,1.23438 -1.14062,0 -2.1875,-0.51563 -1.03125,-0.51562 -1.57812,-1.51562 -0.53125,-1 -0.53125,-2.42188 z m 2.25,0.10938 q 0,1.23437 0.57812,1.89062 0.59375,0.65625 1.45313,0.65625 0.85937,0 1.4375,-0.65625 0.59375,-0.65625 0.59375,-1.90625 0,-1.21875 -0.59375,-1.875 -0.57813,-0.65625 -1.4375,-0.65625 -0.85938,0 -1.45313,0.65625 -0.57812,0.65625 -0.57812,1.89063 z m 15.27343,-1.6875 -2.17188,0.39062 q -0.10937,-0.65625 -0.5,-0.98437 -0.375,-0.32813 -1,-0.32813 -0.8125,0 -1.3125,0.57813 -0.48437,0.5625 -0.48437,1.89062 0,1.46875 0.5,2.07813 0.5,0.60937 1.32812,0.60937 0.625,0 1.01563,-0.34375 0.40625,-0.35937 0.57812,-1.23437 l 2.15625,0.375 q -0.34375,1.48437 -1.29687,2.25 -0.95313,0.75 -2.54688,0.75 -1.82812,0 -2.90625,-1.14063 -1.07811,-1.15625 -1.07811,-3.1875 0,-2.0625 1.07811,-3.20312 1.09375,-1.14063 2.9375,-1.14063 1.51563,0 2.40625,0.65625 0.90625,0.64063 1.29688,1.98438 z m 6.46094,3.20312 2.1875,0.35938 q -0.42188,1.20312 -1.32813,1.84375 -0.90625,0.625 -2.28125,0.625 -2.15625,0 -3.20312,-1.42188 -0.8125,-1.125 -0.8125,-2.85937 0,-2.0625 1.07812,-3.21875 1.07813,-1.17188 2.71875,-1.17188 1.85938,0 2.92188,1.21875 1.07812,1.21875 1.03125,3.75 h -5.5 q 0.0156,0.96875 0.51562,1.51563 0.51563,0.54687 1.28125,0.54687 0.51563,0 0.85938,-0.28125 0.35937,-0.28125 0.53125,-0.90625 z m 0.125,-2.21875 q -0.0156,-0.95312 -0.48438,-1.45312 -0.46875,-0.5 -1.14062,-0.5 -0.71875,0 -1.1875,0.53125 -0.46875,0.51562 -0.46875,1.42187 z m 3.19531,2.48438 2.20312,-0.32813 q 0.14063,0.64063 0.5625,0.96875 0.4375,0.32813 1.21875,0.32813 0.84375,0 1.28125,-0.3125 0.28125,-0.21875 0.28125,-0.57813 0,-0.25 -0.15625,-0.42187 -0.15625,-0.15625 -0.73437,-0.28125 -2.65625,-0.59375 -3.35938,-1.07813 -0.98437,-0.67187 -0.98437,-1.85937 0,-1.07813 0.84375,-1.8125 0.85937,-0.73438 2.64062,-0.73438 1.70313,0 2.53125,0.5625 0.82813,0.54688 1.14063,1.625 l -2.0625,0.39063 q -0.14063,-0.48438 -0.51563,-0.73438 -0.35937,-0.26562 -1.04687,-0.26562 -0.875,0 -1.25,0.23437 -0.25,0.17188 -0.25,0.45313 0,0.23437 0.21875,0.39062 0.29687,0.21875 2.04687,0.625 1.76563,0.39063 2.45313,0.96875 0.6875,0.59375 0.6875,1.64063 0,1.14062 -0.95313,1.96875 -0.95312,0.8125 -2.8125,0.8125 -1.70312,0 -2.6875,-0.6875 -0.98437,-0.6875 -1.29687,-1.875 z m 8.89844,0 2.20312,-0.32813 q 0.14063,0.64063 0.5625,0.96875 0.4375,0.32813 1.21875,0.32813 0.84375,0 1.28125,-0.3125 0.28125,-0.21875 0.28125,-0.57813 0,-0.25 -0.15625,-0.42187 -0.15625,-0.15625 -0.73437,-0.28125 -2.65625,-0.59375 -3.35938,-1.07813 -0.98437,-0.67187 -0.98437,-1.85937 0,-1.07813 0.84375,-1.8125 0.85937,-0.73438 2.64062,-0.73438 1.70313,0 2.53125,0.5625 0.82813,0.54688 1.14063,1.625 l -2.0625,0.39063 q -0.14063,-0.48438 -0.51563,-0.73438 -0.35937,-0.26562 -1.04687,-0.26562 -0.875,0 -1.25,0.23437 -0.25,0.17188 -0.25,0.45313 0,0.23437 0.21875,0.39062 0.29687,0.21875 2.04687,0.625 1.76563,0.39063 2.45313,0.96875 0.6875,0.59375 0.6875,1.64063 0,1.14062 -0.95313,1.96875 -0.95312,0.8125 -2.8125,0.8125 -1.70312,0 -2.6875,-0.6875 -0.98437,-0.6875 -1.29687,-1.875 z m 9.16406,-1.89063 q 0,-1.09375 0.53125,-2.10937 0.54687,-1.03125 1.53125,-1.5625 1,-0.54688 2.21875,-0.54688 1.875,0 3.07812,1.21875 1.20313,1.21875 1.20313,3.09375 0,1.875 -1.21875,3.125 -1.20313,1.23438 -3.04688,1.23438 -1.14062,0 -2.1875,-0.51563 -1.03125,-0.51562 -1.57812,-1.51562 -0.53125,-1 -0.53125,-2.42188 z m 2.25,0.10938 q 0,1.23437 0.57812,1.89062 0.59375,0.65625 1.45313,0.65625 0.85937,0 1.4375,-0.65625 0.59375,-0.65625 0.59375,-1.90625 0,-1.21875 -0.59375,-1.875 -0.57813,-0.65625 -1.4375,-0.65625 -0.85938,0 -1.45313,0.65625 -0.57812,0.65625 -0.57812,1.89063 z m 7.25781,1.78125 2.20313,-0.32813 q 0.14062,0.64063 0.5625,0.96875 0.4375,0.32813 1.21875,0.32813 0.84375,0 1.28125,-0.3125 0.28125,-0.21875 0.28125,-0.57813 0,-0.25 -0.15625,-0.42187 -0.15625,-0.15625 -0.73438,-0.28125 -2.65625,-0.59375 -3.35937,-1.07813 -0.98438,-0.67187 -0.98438,-1.85937 0,-1.07813 0.84375,-1.8125 0.85938,-0.73438 2.64063,-0.73438 1.70312,0 2.53125,0.5625 0.82812,0.54688 1.14062,1.625 l -2.0625,0.39063 q -0.14062,-0.48438 -0.51562,-0.73438 -0.35938,-0.26562 -1.04688,-0.26562 -0.875,0 -1.25,0.23437 -0.25,0.17188 -0.25,0.45313 0,0.23437 0.21875,0.39062 0.29688,0.21875 2.04688,0.625 1.76562,0.39063 2.45312,0.96875 0.6875,0.59375 0.6875,1.64063 0,1.14062 -0.95312,1.96875 -0.95313,0.8125 -2.8125,0.8125 -1.70313,0 -2.6875,-0.6875 -0.98438,-0.6875 -1.29688,-1.875 z m 21.73438,2.375 h -2.04688 v -1.21875 q -0.5,0.70312 -1.20312,1.0625 -0.6875,0.34375 -1.39063,0.34375 -1.42187,0 -2.45312,-1.15625 -1.01563,-1.15625 -1.01563,-3.21875 0,-2.10938 0.98438,-3.20313 1,-1.09375 2.51562,-1.09375 1.39063,0 2.40625,1.15625 v -4.125 h 2.20313 z m -5.85938,-4.32813 q 0,1.32813 0.35938,1.92188 0.53125,0.85937 1.48437,0.85937 0.76563,0 1.29688,-0.64062 0.53125,-0.65625 0.53125,-1.9375 0,-1.42188 -0.51563,-2.04688 -0.51562,-0.64062 -1.32812,-0.64062 -0.78125,0 -1.3125,0.625 -0.51563,0.625 -0.51563,1.85937 z m 12.82031,1.6875 2.1875,0.35938 q -0.42187,1.20312 -1.32812,1.84375 -0.90625,0.625 -2.28125,0.625 -2.15625,0 -3.20313,-1.42188 -0.8125,-1.125 -0.8125,-2.85937 0,-2.0625 1.07813,-3.21875 1.07812,-1.17188 2.71875,-1.17188 1.85937,0 2.92187,1.21875 1.07813,1.21875 1.03125,3.75 h -5.5 q 0.0156,0.96875 0.51563,1.51563 0.51562,0.54687 1.28125,0.54687 0.51562,0 0.85937,-0.28125 0.35938,-0.28125 0.53125,-0.90625 z m 0.125,-2.21875 q -0.0156,-0.95312 -0.48437,-1.45312 -0.46875,-0.5 -1.14063,-0.5 -0.71875,0 -1.1875,0.53125 -0.46875,0.51562 -0.46875,1.42187 z" />
  <path
     style="fill:#000000;fill-rule:nonzero"
     inkscape:connector-curvature="0"
     id="path17"
     d="m 47.55932,382.90565 h 2.04687 v 1.21875 q 0.39063,-0.625 1.0625,-1.01563 0.6875,-0.39062 1.51563,-0.39062 1.45312,0 2.45312,1.14062 1.01563,1.125 1.01563,3.14063 0,2.07812 -1.01563,3.23437 -1.01562,1.15625 -2.46875,1.15625 -0.6875,0 -1.25,-0.26562 -0.54687,-0.28125 -1.17187,-0.95313 v 4.1875 h -2.1875 z m 2.17187,4 q 0,1.40625 0.54688,2.07812 0.5625,0.65625 1.35937,0.65625 0.76563,0 1.26563,-0.60937 0.51562,-0.60938 0.51562,-2.01563 0,-1.29687 -0.53125,-1.92187 -0.51562,-0.64063 -1.29687,-0.64063 -0.79688,0 -1.32813,0.625 -0.53125,0.60938 -0.53125,1.82813 z m 9.30469,-1.46875 -2,-0.35938 q 0.34375,-1.20312 1.15625,-1.78125 0.82813,-0.57812 2.4375,-0.57812 1.46875,0 2.1875,0.34375 0.71875,0.34375 1.01563,0.89062 0.29687,0.53125 0.29687,1.95313 l -0.0312,2.5625 q 0,1.09375 0.10938,1.625 0.10937,0.51562 0.39062,1.10937 h -2.17187 q -0.0781,-0.21875 -0.20313,-0.65625 -0.0625,-0.1875 -0.0781,-0.25 -0.5625,0.54688 -1.20313,0.82813 -0.64062,0.26562 -1.375,0.26562 -1.28125,0 -2.01562,-0.6875 -0.73438,-0.70312 -0.73438,-1.76562 0,-0.70313 0.32813,-1.25 0.34375,-0.5625 0.9375,-0.84375 0.60937,-0.29688 1.75,-0.51563 1.54687,-0.29687 2.14062,-0.54687 v -0.21875 q 0,-0.625 -0.3125,-0.89063 -0.3125,-0.28125 -1.1875,-0.28125 -0.57812,0 -0.90625,0.23438 -0.32812,0.23437 -0.53125,0.8125 z m 2.9375,1.78125 q -0.42187,0.14062 -1.34375,0.34375 -0.90625,0.1875 -1.1875,0.375 -0.4375,0.29687 -0.4375,0.76562 0,0.46875 0.34375,0.8125 0.34375,0.32813 0.875,0.32813 0.59375,0 1.14063,-0.39063 0.39062,-0.29687 0.51562,-0.73437 0.0937,-0.28125 0.0937,-1.0625 z m 6.41406,3.98437 h -2.1875 v -8.29687 h 2.03125 v 1.17187 q 0.53125,-0.82812 0.9375,-1.09375 0.42188,-0.26562 0.95313,-0.26562 0.75,0 1.45312,0.40625 l -0.6875,1.92187 q -0.54687,-0.35937 -1.03125,-0.35937 -0.45312,0 -0.78125,0.25 -0.3125,0.25 -0.5,0.92187 -0.1875,0.65625 -0.1875,2.78125 z m 7.92968,-8.29687 v 1.75 h -1.5 v 3.34375 q 0,1.01562 0.0469,1.1875 0.0469,0.15625 0.1875,0.26562 0.15625,0.10938 0.375,0.10938 0.3125,0 0.89062,-0.20313 l 0.1875,1.70313 q -0.76562,0.32812 -1.73437,0.32812 -0.59374,0 -1.07812,-0.20312 -0.46875,-0.20313 -0.70312,-0.51563 -0.21875,-0.3125 -0.29688,-0.85937 -0.0781,-0.375 -0.0781,-1.54688 v -3.60937 h -1 v -1.75 h 1 v -1.65625 l 2.20311,-1.28125 v 2.9375 z m 1.53125,-1.125 v -2.03125 h 2.1875 v 2.03125 z m 0,9.42187 v -8.29687 h 2.1875 v 8.29687 z m 11.67969,-5.84375 -2.17187,0.39063 q -0.10938,-0.65625 -0.5,-0.98438 -0.375,-0.32812 -1,-0.32812 -0.8125,0 -1.3125,0.57812 -0.48438,0.5625 -0.48438,1.89063 0,1.46875 0.5,2.07812 0.5,0.60938 1.32813,0.60938 0.625,0 1.01562,-0.34375 0.40625,-0.35938 0.57813,-1.23438 l 2.15625,0.375 q -0.34375,1.48438 -1.29688,2.25 -0.95312,0.75 -2.54687,0.75 -1.82813,0 -2.90625,-1.14062 -1.07813,-1.15625 -1.07813,-3.1875 0,-2.0625 1.07813,-3.20313 1.09375,-1.14062 2.9375,-1.14062 1.51562,0 2.40625,0.65625 0.90625,0.64062 1.29687,1.98437 z m 1.66406,-3.57812 v -2.03125 h 2.1875 v 2.03125 z m 0,9.42187 v -8.29687 h 2.1875 v 8.29687 z m 4.38282,-8.29687 h 2.04687 v 1.21875 q 0.39063,-0.625 1.0625,-1.01563 0.6875,-0.39062 1.51563,-0.39062 1.45312,0 2.45312,1.14062 1.01563,1.125 1.01563,3.14063 0,2.07812 -1.01563,3.23437 -1.01562,1.15625 -2.46875,1.15625 -0.6875,0 -1.25,-0.26562 -0.54687,-0.28125 -1.17187,-0.95313 v 4.1875 h -2.1875 z m 2.17187,4 q 0,1.40625 0.54688,2.07812 0.5625,0.65625 1.35937,0.65625 0.76563,0 1.26563,-0.60937 0.51562,-0.60938 0.51562,-2.01563 0,-1.29687 -0.53125,-1.92187 -0.51562,-0.64063 -1.29687,-0.64063 -0.79688,0 -1.32813,0.625 -0.53125,0.60938 -0.53125,1.82813 z m 9.30469,-1.46875 -2,-0.35938 q 0.34375,-1.20312 1.15625,-1.78125 0.82812,-0.57812 2.4375,-0.57812 1.46875,0 2.1875,0.34375 0.71875,0.34375 1.01562,0.89062 0.29688,0.53125 0.29688,1.95313 l -0.0312,2.5625 q 0,1.09375 0.10937,1.625 0.10938,0.51562 0.39063,1.10937 h -2.17188 q -0.0781,-0.21875 -0.20312,-0.65625 -0.0625,-0.1875 -0.0781,-0.25 -0.5625,0.54688 -1.20312,0.82813 -0.64063,0.26562 -1.375,0.26562 -1.28125,0 -2.01563,-0.6875 -0.73437,-0.70312 -0.73437,-1.76562 0,-0.70313 0.32812,-1.25 0.34375,-0.5625 0.9375,-0.84375 0.60938,-0.29688 1.75,-0.51563 1.54688,-0.29687 2.14063,-0.54687 v -0.21875 q 0,-0.625 -0.3125,-0.89063 -0.3125,-0.28125 -1.1875,-0.28125 -0.57813,0 -0.90625,0.23438 -0.32813,0.23437 -0.53125,0.8125 z m 2.9375,1.78125 q -0.42188,0.14062 -1.34375,0.34375 -0.90625,0.1875 -1.1875,0.375 -0.4375,0.29687 -0.4375,0.76562 0,0.46875 0.34375,0.8125 0.34375,0.32813 0.875,0.32813 0.59375,0 1.14062,-0.39063 0.39063,-0.29687 0.51563,-0.73437 0.0937,-0.28125 0.0937,-1.0625 z m 11.55469,-1.85938 -2.17188,0.39063 q -0.10937,-0.65625 -0.5,-0.98438 -0.375,-0.32812 -1,-0.32812 -0.8125,0 -1.3125,0.57812 -0.48437,0.5625 -0.48437,1.89063 0,1.46875 0.5,2.07812 0.5,0.60938 1.32812,0.60938 0.625,0 1.01563,-0.34375 0.40625,-0.35938 0.57812,-1.23438 l 2.15625,0.375 q -0.34375,1.48438 -1.29687,2.25 -0.95313,0.75 -2.54688,0.75 -1.82812,0 -2.90625,-1.14062 -1.07812,-1.15625 -1.07812,-3.1875 0,-2.0625 1.07812,-3.20313 1.09375,-1.14062 2.9375,-1.14062 1.51563,0 2.40625,0.65625 0.90625,0.64062 1.29688,1.98437 z m -6.09375,9 v -0.92187 q 0.8125,0.0781 1.48437,0.0781 0.6875,0 1.03125,-0.25 0.25,-0.1875 0.25,-0.48437 0,-0.26563 -0.25,-0.46875 -0.23437,-0.1875 -0.73437,-0.1875 -0.5,0 -1.03125,0.15625 l 0.20312,-0.76563 q 0.60938,-0.21875 1.3125,-0.21875 0.98438,0 1.48438,0.42188 0.51562,0.4375 0.51562,1.0625 0,0.6875 -0.5625,1.10937 -0.76562,0.59375 -2.17187,0.59375 -1.01563,0 -1.53125,-0.125 z m 9.39843,-8.92187 -2,-0.35938 q 0.34375,-1.20312 1.15625,-1.78125 0.82813,-0.57812 2.4375,-0.57812 1.46875,0 2.1875,0.34375 0.71875,0.34375 1.01563,0.89062 0.29687,0.53125 0.29687,1.95313 l -0.0312,2.5625 q 0,1.09375 0.10938,1.625 0.10937,0.51562 0.39062,1.10937 h -2.17187 q -0.0781,-0.21875 -0.20313,-0.65625 -0.0625,-0.1875 -0.0781,-0.25 -0.5625,0.54688 -1.20313,0.82813 -0.64062,0.26562 -1.375,0.26562 -1.28125,0 -2.01562,-0.6875 -0.73438,-0.70312 -0.73438,-1.76562 0,-0.70313 0.32813,-1.25 0.34375,-0.5625 0.9375,-0.84375 0.60937,-0.29688 1.75,-0.51563 1.54687,-0.29687 2.14062,-0.54687 v -0.21875 q 0,-0.625 -0.3125,-0.89063 -0.3125,-0.28125 -1.1875,-0.28125 -0.57812,0 -0.90625,0.23438 -0.32812,0.23437 -0.53125,0.8125 z m 2.9375,1.78125 q -0.42187,0.14062 -1.34375,0.34375 -0.90625,0.1875 -1.1875,0.375 -0.4375,0.29687 -0.4375,0.76562 0,0.46875 0.34375,0.8125 0.34375,0.32813 0.875,0.32813 0.59375,0 1.14063,-0.39063 0.39062,-0.29687 0.51562,-0.73437 0.0937,-0.28125 0.0937,-1.0625 z m -2.82812,-5.4375 h -1 q -0.0156,-0.17188 -0.0156,-0.28125 0,-0.8125 0.40625,-1.25 0.40625,-0.45313 1.03125,-0.45313 0.26563,0 0.5,0.0625 0.23438,0.0625 0.85938,0.34375 0.625,0.26563 0.96875,0.26563 0.25,0 0.42187,-0.15625 0.17188,-0.15625 0.21875,-0.51563 h 1.01563 q -0.0156,1.04688 -0.40625,1.5 -0.375,0.45313 -0.98438,0.45313 -0.26562,0 -0.53125,-0.0469 -0.17187,-0.0469 -0.89062,-0.3125 -0.71875,-0.28125 -1.04688,-0.28125 -0.25,0 -0.39062,0.15625 -0.14063,0.14063 -0.15625,0.51563 z m 6.63281,5.15625 q 0,-1.09375 0.53125,-2.10938 0.54688,-1.03125 1.53125,-1.5625 1,-0.54687 2.21875,-0.54687 1.875,0 3.07813,1.21875 1.20312,1.21875 1.20312,3.09375 0,1.875 -1.21875,3.125 -1.20312,1.23437 -3.04687,1.23437 -1.14063,0 -2.1875,-0.51562 -1.03125,-0.51563 -1.57813,-1.51563 -0.53125,-1 -0.53125,-2.42187 z m 2.25,0.10937 q 0,1.23438 0.57813,1.89063 0.59375,0.65625 1.45312,0.65625 0.85938,0 1.4375,-0.65625 0.59375,-0.65625 0.59375,-1.90625 0,-1.21875 -0.59375,-1.875 -0.57812,-0.65625 -1.4375,-0.65625 -0.85937,0 -1.45312,0.65625 -0.57813,0.65625 -0.57813,1.89062 z m 7.42969,7.53125 q 0.64062,-1.39062 0.90625,-2.14062 0.26562,-0.73438 0.48437,-1.70313 0.23438,-0.98437 0.34375,-1.84375 0.10938,-0.875 0.10938,-1.79687 0,-1.85938 -0.40625,-3.51563 -0.39063,-1.65625 -1.45313,-4.03125 h 1.48438 q 1.1875,1.6875 1.82812,3.57813 0.65625,1.875 0.65625,3.8125 0,1.625 -0.51562,3.5 -0.57813,2.09375 -1.92188,4.14062 z" />
  <path
     style="fill:#000000;fill-opacity:0;fill-rule:evenodd"
     inkscape:connector-curvature="0"
     id="path19"
     d="m 90.00787,156.00788 -46.897636,140" />
  <path
     style="fill-rule:evenodd;stroke:#000000;stroke-width:2;stroke-linecap:butt;stroke-linejoin:round"
     inkscape:connector-curvature="0"
     id="path21"
     d="M 90.00787,156.00788 46.92186,284.62934" />
  <path
     style="fill:#000000;fill-rule:evenodd;stroke:#000000;stroke-width:2;stroke-linecap:butt"
     inkscape:connector-curvature="0"
     id="path23"
     d="m 43.789474,283.58002 0.249466,9.65546 6.01531,-7.55686 z" />
  <path
     style="fill:#000000;fill-opacity:0;fill-rule:evenodd"
     inkscape:connector-curvature="0"
     id="path25"
     d="m 90.00787,156.00788 50.89764,133.32281" />
  <path
     style="fill-rule:evenodd;stroke:#000000;stroke-width:2;stroke-linecap:butt;stroke-linejoin:round"
     inkscape:connector-curvature="0"
     id="path27"
     d="m 90.00787,156.00788 46.61777,122.112" />
  <path
     style="fill:#000000;fill-rule:evenodd;stroke:#000000;stroke-width:2;stroke-linecap:butt"
     inkscape:connector-curvature="0"
     id="path29"
     d="m 133.53943,279.29808 6.32329,7.30112 -0.15087,-9.6575 z" />
  <path
     style="fill:#000000;fill-opacity:0;fill-rule:evenodd"
     inkscape:connector-curvature="0"
     id="path31"
     d="m 90.00787,156.00788 3.1181,135.55905" />
  <path
     style="fill-rule:evenodd;stroke:#000000;stroke-width:2;stroke-linecap:butt;stroke-linejoin:round"
     inkscape:connector-curvature="0"
     id="path33"
     d="M 90.00787,156.00788 92.85003,279.5701" />
  <path
     style="fill:#000000;fill-rule:evenodd;stroke:#000000;stroke-width:2;stroke-linecap:butt"
     inkscape:connector-curvature="0"
     id="path35"
     d="m 89.54744,279.64606 3.51131,8.99783 3.09388,-9.14975 z" />
  <path
     style="fill:#cfe2f3;fill-rule:evenodd"
     inkscape:connector-curvature="0"
     id="path37"
     d="m 11,83.50394 v 0 C 11,43.461116 46.37303,11 90.00787,11 v 0 c 43.63484,0 79.00787,32.461113 79.00787,72.50394 v 0 c 0,40.04282 -35.37303,72.50394 -79.00787,72.50394 v 0 C 46.37303,156.00788 11,123.54676 11,83.50394 Z" />
  <path
     style="fill-rule:evenodd;stroke:#000000;stroke-width:2;stroke-linecap:butt;stroke-linejoin:round"
     inkscape:connector-curvature="0"
     id="path39"
     d="m 11,83.50394 v 0 C 11,43.461116 46.37303,11 90.00787,11 v 0 c 43.63484,0 79.00787,32.461113 79.00787,72.50394 v 0 c 0,40.04282 -35.37303,72.50394 -79.00787,72.50394 v 0 C 46.37303,156.00788 11,123.54676 11,83.50394 Z" />
  <path
     style="fill:#000000;fill-opacity:0;fill-rule:evenodd"
     inkscape:connector-curvature="0"
     id="path41"
     d="m 17.25197,50.51182 h 145.51181 v 65.98425 H 17.25197 Z" />
  <path
     style="fill:#ff0000;fill-rule:nonzero"
     inkscape:connector-curvature="0"
     id="path43"
     d="m 45.61335,70.65307 2.23438,0.71875 q -0.51563,1.875 -1.71875,2.79688 -1.187505,0.90625 -3.031255,0.90625 -2.28125,0 -3.75,-1.5625 -1.46875,-1.5625 -1.46875,-4.26563 0,-2.85937 1.46875,-4.4375 1.484375,-1.59375 3.890625,-1.59375 2.09375,0 3.40625,1.25 0.78125,0.73438 1.17188,2.10938 l -2.28125,0.54687 q -0.20313,-0.89062 -0.85938,-1.40625 -0.640625,-0.51562 -1.5625,-0.51562 -1.265625,0 -2.0625,0.92187 -0.796875,0.90625 -0.796875,2.95313 0,2.17187 0.78125,3.09375 0.78125,0.92187 2.03125,0.92187 0.921875,0 1.578125,-0.57812 0.671875,-0.59375 0.96875,-1.85938 z m 3.69531,-0.0469 q 0,-1.09375 0.53125,-2.10938 0.54688,-1.03125 1.53125,-1.5625 1,-0.54687 2.21875,-0.54687 1.875,0 3.07813,1.21875 1.20312,1.21875 1.20312,3.09375 0,1.875 -1.21875,3.125 -1.20312,1.23437 -3.04687,1.23437 -1.14063,0 -2.1875,-0.51562 -1.03125,-0.51563 -1.57813,-1.51563 -0.53125,-1 -0.53125,-2.42187 z m 2.25,0.10937 q 0,1.23438 0.57813,1.89063 0.59375,0.65625 1.45312,0.65625 0.85938,0 1.4375,-0.65625 0.59375,-0.65625 0.59375,-1.90625 0,-1.21875 -0.59375,-1.875 -0.57812,-0.65625 -1.4375,-0.65625 -0.85937,0 -1.45312,0.65625 -0.57813,0.65625 -0.57813,1.89062 z m 7.86719,-4.14062 h 2.03125 v 1.125 q 1.07813,-1.3125 2.57813,-1.3125 0.79687,0 1.375,0.32812 0.59375,0.32813 0.96875,0.98438 0.54687,-0.65625 1.17187,-0.98438 0.64063,-0.32812 1.35938,-0.32812 0.92187,0 1.54687,0.375 0.64063,0.35937 0.95313,1.07812 0.21875,0.53125 0.21875,1.71875 v 5.3125 h -2.1875 v -4.75 q 0,-1.23437 -0.23438,-1.59375 -0.29687,-0.46875 -0.9375,-0.46875 -0.45312,0 -0.85937,0.28125 -0.40625,0.28125 -0.59375,0.82813 -0.17188,0.54687 -0.17188,1.71875 v 3.98437 h -2.20312 v -4.54687 q 0,-1.21875 -0.125,-1.5625 -0.10938,-0.35938 -0.35938,-0.53125 -0.23437,-0.17188 -0.65625,-0.17188 -0.51562,0 -0.92187,0.28125 -0.40625,0.26563 -0.57813,0.78125 -0.17187,0.51563 -0.17187,1.71875 v 4.03125 h -2.20313 z m 19.85155,8.29687 v -1.25 q -0.45312,0.67188 -1.1875,1.0625 -0.73437,0.375 -1.5625,0.375 -0.82812,0 -1.5,-0.35937 -0.65624,-0.375 -0.95311,-1.03125 -0.29688,-0.67188 -0.29688,-1.84375 v -5.25 h 2.18749 v 3.8125 q 0,1.75 0.125,2.14062 0.125,0.39063 0.4375,0.625 0.32813,0.23438 0.8125,0.23438 0.5625,0 1,-0.3125 0.45313,-0.3125 0.60938,-0.76563 0.17187,-0.45312 0.17187,-2.23437 v -3.5 h 2.20313 v 8.29687 z m 11.86719,0 h -2.20312 v -4.23437 q 0,-1.34375 -0.14063,-1.73438 -0.14062,-0.40625 -0.45312,-0.625 -0.3125,-0.21875 -0.76563,-0.21875 -0.5625,0 -1.01562,0.3125 -0.45313,0.3125 -0.625,0.82813 -0.17188,0.51562 -0.17188,1.90625 v 3.76562 h -2.1875 v -8.29687 h 2.03125 v 1.21875 q 1.09375,-1.40625 2.73438,-1.40625 0.73437,0 1.32812,0.26562 0.60938,0.25 0.90625,0.65625 0.3125,0.40625 0.4375,0.92188 0.125,0.51562 0.125,1.48437 z m 2.22656,-9.42187 v -2.031255 h 2.1875 v 2.031255 z m 0,9.42187 v -8.29687 h 2.1875 v 8.29687 z m 12.05469,0 h -2.04687 v -1.21875 q -0.5,0.70313 -1.20313,1.0625 -0.6875,0.34375 -1.39062,0.34375 -1.42188,0 -2.45313,-1.15625 -1.01562,-1.15625 -1.01562,-3.21875 0,-2.10937 0.98437,-3.20312 1,-1.09375 2.51563,-1.09375 1.39062,0 2.40625,1.15625 v -4.125005 h 2.20312 z m -5.85937,-4.32812 q 0,1.32812 0.35937,1.92187 0.53125,0.85938 1.48438,0.85938 0.76562,0 1.29687,-0.64063 0.53125,-0.65625 0.53125,-1.9375 0,-1.42187 -0.51562,-2.04687 -0.51563,-0.64063 -1.32813,-0.64063 -0.78125,0 -1.3125,0.625 -0.51562,0.625 -0.51562,1.85938 z m 9.66406,-1.4375 -2,-0.35938 q 0.34375,-1.20312 1.15625,-1.78125 0.82812,-0.57812 2.4375,-0.57812 1.46875,0 2.1875,0.34375 0.71875,0.34375 1.01562,0.89062 0.29688,0.53125 0.29688,1.95313 l -0.0312,2.5625 q 0,1.09375 0.10937,1.625 0.10938,0.51562 0.39063,1.10937 h -2.17188 q -0.0781,-0.21875 -0.20312,-0.65625 -0.0625,-0.1875 -0.0781,-0.25 -0.5625,0.54688 -1.20312,0.82813 -0.64063,0.26562 -1.375,0.26562 -1.28125,0 -2.01563,-0.6875 -0.73437,-0.70312 -0.73437,-1.76562 0,-0.70313 0.32812,-1.25 0.34375,-0.5625 0.9375,-0.84375 0.60938,-0.29688 1.75,-0.51563 1.54688,-0.29687 2.14063,-0.54687 v -0.21875 q 0,-0.625 -0.3125,-0.89063 -0.3125,-0.28125 -1.1875,-0.28125 -0.57813,0 -0.90625,0.23438 -0.32813,0.23437 -0.53125,0.8125 z m 2.9375,1.78125 q -0.42188,0.14062 -1.34375,0.34375 -0.90625,0.1875 -1.1875,0.375 -0.4375,0.29687 -0.4375,0.76562 0,0.46875 0.34375,0.8125 0.34375,0.32813 0.875,0.32813 0.59375,0 1.14062,-0.39063 0.39063,-0.29687 0.51563,-0.73437 0.0937,-0.28125 0.0937,-1.0625 z m 11.92969,3.98437 h -2.04688 v -1.21875 q -0.5,0.70313 -1.20312,1.0625 -0.6875,0.34375 -1.39063,0.34375 -1.42187,0 -2.45312,-1.15625 -1.01563,-1.15625 -1.01563,-3.21875 0,-2.10937 0.98438,-3.20312 1,-1.09375 2.51562,-1.09375 1.39063,0 2.40625,1.15625 v -4.125005 h 2.20313 z m -5.85938,-4.32812 q 0,1.32812 0.35938,1.92187 0.53125,0.85938 1.48437,0.85938 0.76563,0 1.29688,-0.64063 0.53125,-0.65625 0.53125,-1.9375 0,-1.42187 -0.51563,-2.04687 -0.51562,-0.64063 -1.32812,-0.64063 -0.78125,0 -1.3125,0.625 -0.51563,0.625 -0.51563,1.85938 z m 12.82031,1.6875 2.1875,0.35937 q -0.42187,1.20313 -1.32812,1.84375 -0.90625,0.625 -2.28125,0.625 -2.15625,0 -3.20313,-1.42187 -0.8125,-1.125 -0.8125,-2.85938 0,-2.0625 1.07813,-3.21875 1.07812,-1.17187 2.71875,-1.17187 1.85937,0 2.92187,1.21875 1.07813,1.21875 1.03125,3.75 h -5.5 q 0.0156,0.96875 0.51563,1.51562 0.51562,0.54688 1.28125,0.54688 0.51562,0 0.85937,-0.28125 0.35938,-0.28125 0.53125,-0.90625 z m 0.125,-2.21875 q -0.0156,-0.95313 -0.48437,-1.45313 -0.46875,-0.5 -1.14063,-0.5 -0.71875,0 -1.1875,0.53125 -0.46875,0.51563 -0.46875,1.42188 z m 3.19532,2.48437 2.20312,-0.32812 q 0.14063,0.64062 0.5625,0.96875 0.4375,0.32812 1.21875,0.32812 0.84375,0 1.28125,-0.3125 0.28125,-0.21875 0.28125,-0.57812 0,-0.25 -0.15625,-0.42188 -0.15625,-0.15625 -0.73437,-0.28125 -2.65625,-0.59375 -3.35938,-1.07812 -0.98437,-0.67188 -0.98437,-1.85938 0,-1.07812 0.84375,-1.8125 0.85937,-0.73437 2.64062,-0.73437 1.70313,0 2.53125,0.5625 0.82813,0.54687 1.14063,1.625 l -2.0625,0.39062 q -0.14063,-0.48437 -0.51563,-0.73437 -0.35937,-0.26563 -1.04687,-0.26563 -0.875,0 -1.25,0.23438 -0.25,0.17187 -0.25,0.45312 0,0.23438 0.21875,0.39063 0.29687,0.21875 2.04687,0.625 1.76563,0.39062 2.45313,0.96875 0.6875,0.59375 0.6875,1.64062 0,1.14063 -0.95313,1.96875 -0.95312,0.8125 -2.8125,0.8125 -1.70312,0 -2.6875,-0.6875 -0.98437,-0.6875 -1.29687,-1.875 z" />
  <path
     style="fill:#ff0000;fill-rule:nonzero"
     inkscape:connector-curvature="0"
     id="path45"
     d="m 89.00006,93.87182 h -2.04688 v -1.21875 q -0.5,0.70313 -1.20312,1.0625 -0.6875,0.34375 -1.39063,0.34375 -1.42187,0 -2.45312,-1.15625 -1.01563,-1.15625 -1.01563,-3.21875 0,-2.10937 0.98438,-3.20312 1,-1.09375 2.51562,-1.09375 1.39063,0 2.40625,1.15625 v -4.125 h 2.20313 z M 83.14068,89.5437 q 0,1.32812 0.35938,1.92187 0.53125,0.85938 1.48437,0.85938 0.76563,0 1.29688,-0.64063 0.53125,-0.65625 0.53125,-1.9375 0,-1.42187 -0.51563,-2.04687 -0.51562,-0.64063 -1.32812,-0.64063 -0.78125,0 -1.3125,0.625 -0.51563,0.625 -0.51563,1.85938 z m 7.50782,0.0625 q 0,-1.09375 0.53125,-2.10938 0.54687,-1.03125 1.53125,-1.5625 1,-0.54687 2.21875,-0.54687 1.875,0 3.07812,1.21875 1.20313,1.21875 1.20313,3.09375 0,1.875 -1.21875,3.125 -1.20313,1.23437 -3.04688,1.23437 -1.14062,0 -2.1875,-0.51562 -1.03125,-0.51563 -1.57812,-1.51563 -0.53125,-1 -0.53125,-2.42187 z m 2.25,0.10937 q 0,1.23438 0.57812,1.89063 0.59375,0.65625 1.45313,0.65625 0.85937,0 1.4375,-0.65625 0.59375,-0.65625 0.59375,-1.90625 0,-1.21875 -0.59375,-1.875 -0.57813,-0.65625 -1.4375,-0.65625 -0.85938,0 -1.45313,0.65625 -0.57812,0.65625 -0.57812,1.89062 z" />
  <path
     style="fill:#ff0000;fill-rule:nonzero"
     inkscape:connector-curvature="0"
     id="path47"
     d="m 47.53523,104.57494 h 2.04687 v 1.21875 q 0.39063,-0.625 1.0625,-1.01563 0.6875,-0.39062 1.51563,-0.39062 1.45312,0 2.45312,1.14062 1.01563,1.125 1.01563,3.14063 0,2.07812 -1.01563,3.23437 -1.01562,1.15625 -2.46875,1.15625 -0.6875,0 -1.25,-0.26562 -0.54687,-0.28125 -1.17187,-0.95313 v 4.1875 h -2.1875 z m 2.17187,4 q 0,1.40625 0.54688,2.07812 0.5625,0.65625 1.35937,0.65625 0.76563,0 1.26563,-0.60937 0.51562,-0.60938 0.51562,-2.01563 0,-1.29687 -0.53125,-1.92187 -0.51562,-0.64063 -1.29687,-0.64063 -0.79688,0 -1.32813,0.625 -0.53125,0.60938 -0.53125,1.82813 z m 9.30469,-1.46875 -2,-0.35938 q 0.34375,-1.20312 1.15625,-1.78125 0.82812,-0.57812 2.4375,-0.57812 1.46875,0 2.1875,0.34375 0.71875,0.34375 1.01562,0.89062 0.29688,0.53125 0.29688,1.95313 l -0.0312,2.5625 q 0,1.09375 0.10937,1.625 0.10938,0.51562 0.39063,1.10937 h -2.17188 q -0.0781,-0.21875 -0.20312,-0.65625 -0.0625,-0.1875 -0.0781,-0.25 -0.5625,0.54688 -1.20312,0.82813 -0.64063,0.26562 -1.375,0.26562 -1.28125,0 -2.01563,-0.6875 -0.73437,-0.70312 -0.73437,-1.76562 0,-0.70313 0.32812,-1.25 0.34375,-0.5625 0.9375,-0.84375 0.60938,-0.29688 1.75,-0.51563 1.54688,-0.29687 2.14063,-0.54687 v -0.21875 q 0,-0.625 -0.3125,-0.89063 -0.3125,-0.28125 -1.1875,-0.28125 -0.57813,0 -0.90625,0.23438 -0.32813,0.23437 -0.53125,0.8125 z m 2.9375,1.78125 q -0.42188,0.14062 -1.34375,0.34375 -0.90625,0.1875 -1.1875,0.375 -0.4375,0.29687 -0.4375,0.76562 0,0.46875 0.34375,0.8125 0.34375,0.32813 0.875,0.32813 0.59375,0 1.14062,-0.39063 0.39063,-0.29687 0.51563,-0.73437 0.0937,-0.28125 0.0937,-1.0625 z m 6.41406,3.98437 h -2.1875 v -8.29687 h 2.03125 v 1.17187 q 0.53125,-0.82812 0.9375,-1.09375 0.42188,-0.26562 0.95313,-0.26562 0.75,0 1.45312,0.40625 l -0.6875,1.92187 q -0.54687,-0.35937 -1.03125,-0.35937 -0.45312,0 -0.78125,0.25 -0.3125,0.25 -0.5,0.92187 -0.1875,0.65625 -0.1875,2.78125 z m 7.92968,-8.29687 v 1.75 h -1.5 v 3.34375 q 0,1.01562 0.0469,1.1875 0.0469,0.15625 0.1875,0.26562 0.15625,0.10938 0.375,0.10938 0.3125,0 0.89063,-0.20313 l 0.1875,1.70313 q -0.76563,0.32812 -1.73438,0.32812 -0.59374,0 -1.07811,-0.20312 -0.46875,-0.20313 -0.70313,-0.51563 -0.21875,-0.3125 -0.29687,-0.85937 -0.0781,-0.375 -0.0781,-1.54688 v -3.60937 h -1 v -1.75 h 1 v -1.65625 l 2.20312,-1.28125 v 2.9375 z m 1.53125,-1.125 v -2.03125 h 2.1875 v 2.03125 z m 0,9.42187 v -8.29687 h 2.1875 v 8.29687 z m 11.67969,-5.84375 -2.17188,0.39063 q -0.10937,-0.65625 -0.5,-0.98438 -0.375,-0.32812 -1,-0.32812 -0.8125,0 -1.3125,0.57812 -0.48437,0.5625 -0.48437,1.89063 0,1.46875 0.5,2.07812 0.5,0.60938 1.32812,0.60938 0.625,0 1.01563,-0.34375 0.40625,-0.35938 0.57812,-1.23438 l 2.15625,0.375 q -0.34375,1.48438 -1.29687,2.25 -0.95313,0.75 -2.54688,0.75 -1.82812,0 -2.90625,-1.14062 -1.07812,-1.15625 -1.07812,-3.1875 0,-2.0625 1.07812,-3.20313 1.09375,-1.14062 2.9375,-1.14062 1.51563,0 2.40625,0.65625 0.90625,0.64062 1.29688,1.98437 z m 1.66406,-3.57812 v -2.03125 h 2.1875 v 2.03125 z m 0,9.42187 v -8.29687 h 2.1875 v 8.29687 z m 4.38281,-8.29687 h 2.04688 v 1.21875 q 0.39062,-0.625 1.0625,-1.01563 0.6875,-0.39062 1.51562,-0.39062 1.45313,0 2.45313,1.14062 1.01562,1.125 1.01562,3.14063 0,2.07812 -1.01562,3.23437 -1.01563,1.15625 -2.46875,1.15625 -0.6875,0 -1.25,-0.26562 -0.54688,-0.28125 -1.17188,-0.95313 v 4.1875 h -2.1875 z m 2.17188,4 q 0,1.40625 0.54687,2.07812 0.5625,0.65625 1.35938,0.65625 0.76562,0 1.26562,-0.60937 0.51563,-0.60938 0.51563,-2.01563 0,-1.29687 -0.53125,-1.92187 -0.51563,-0.64063 -1.29688,-0.64063 -0.79687,0 -1.32812,0.625 -0.53125,0.60938 -0.53125,1.82813 z m 9.30468,-1.46875 -2,-0.35938 q 0.34375,-1.20312 1.15625,-1.78125 0.82813,-0.57812 2.4375,-0.57812 1.46875,0 2.1875,0.34375 0.71875,0.34375 1.01563,0.89062 0.29687,0.53125 0.29687,1.95313 l -0.0312,2.5625 q 0,1.09375 0.10938,1.625 0.10937,0.51562 0.39062,1.10937 h -2.17187 q -0.0781,-0.21875 -0.20313,-0.65625 -0.0625,-0.1875 -0.0781,-0.25 -0.5625,0.54688 -1.20313,0.82813 -0.64062,0.26562 -1.375,0.26562 -1.28125,0 -2.01562,-0.6875 -0.73438,-0.70312 -0.73438,-1.76562 0,-0.70313 0.32813,-1.25 0.34375,-0.5625 0.9375,-0.84375 0.60937,-0.29688 1.75,-0.51563 1.54687,-0.29687 2.14062,-0.54687 v -0.21875 q 0,-0.625 -0.3125,-0.89063 -0.3125,-0.28125 -1.1875,-0.28125 -0.57812,0 -0.90625,0.23438 -0.32812,0.23437 -0.53125,0.8125 z m 2.9375,1.78125 q -0.42187,0.14062 -1.34375,0.34375 -0.90625,0.1875 -1.1875,0.375 -0.4375,0.29687 -0.4375,0.76562 0,0.46875 0.34375,0.8125 0.34375,0.32813 0.875,0.32813 0.59375,0 1.14063,-0.39063 0.39062,-0.29687 0.51562,-0.73437 0.0937,-0.28125 0.0937,-1.0625 z m 4.32032,3.98437 v -2.20312 h 2.1875 v 2.20312 z m 4.35156,0 v -11.45312 h 2.1875 v 4.125 q 1.01562,-1.15625 2.40625,-1.15625 1.51562,0 2.5,1.09375 1,1.09375 1,3.15625 0,2.125 -1.01563,3.28125 -1,1.14062 -2.45312,1.14062 -0.70313,0 -1.40625,-0.35937 -0.6875,-0.35938 -1.1875,-1.04688 v 1.21875 z m 2.17187,-4.32812 q 0,1.28125 0.40625,1.90625 0.57813,0.875 1.51563,0.875 0.73437,0 1.23437,-0.625 0.51563,-0.625 0.51563,-1.95313 0,-1.42187 -0.51563,-2.04687 -0.51562,-0.64063 -1.3125,-0.64063 -0.79687,0 -1.32812,0.625 -0.51563,0.60938 -0.51563,1.85938 z m 9.78907,4.32812 h -2.1875 v -8.29687 h 2.03125 v 1.17187 q 0.53125,-0.82812 0.9375,-1.09375 0.42187,-0.26562 0.95312,-0.26562 0.75,0 1.45313,0.40625 l -0.6875,1.92187 q -0.54688,-0.35937 -1.03125,-0.35937 -0.45313,0 -0.78125,0.25 -0.3125,0.25 -0.5,0.92187 -0.1875,0.65625 -0.1875,2.78125 z" />
  <path
     style="fill:#cfe2f3;fill-rule:evenodd"
     inkscape:connector-curvature="0"
     id="path49"
     d="m 280.88715,281.54594 v 0 c 0,-40.04282 35.37302,-72.50394 79.00787,-72.50394 v 0 c 43.63483,0 79.00787,32.46112 79.00787,72.50394 v 0 c 0,40.04282 -35.37305,72.50394 -79.00787,72.50394 v 0 c -43.63486,0 -79.00787,-32.46112 -79.00787,-72.50394 z" />
  <path
     style="fill-rule:evenodd;stroke:#000000;stroke-width:2;stroke-linecap:butt;stroke-linejoin:round"
     inkscape:connector-curvature="0"
     id="path51"
     d="m 280.88715,281.54594 v 0 c 0,-40.04282 35.37302,-72.50394 79.00787,-72.50394 v 0 c 43.63483,0 79.00787,32.46112 79.00787,72.50394 v 0 c 0,40.04282 -35.37305,72.50394 -79.00787,72.50394 v 0 c -43.63486,0 -79.00787,-32.46112 -79.00787,-72.50394 z" />
  <path
     style="fill:#000000;fill-opacity:0;fill-rule:evenodd"
     inkscape:connector-curvature="0"
     id="path53"
     d="m 287.64304,251.042 h 145.51184 v 61.00787 H 287.64304 Z" />
  <path
     style="fill:#000000;fill-rule:nonzero"
     inkscape:connector-curvature="0"
     id="path55"
     d="m 335.33646,275.40201 v -11.45312 h 8.48437 v 1.9375 h -6.17187 v 2.53125 h 5.75 v 1.9375 h -5.75 v 3.10937 h 6.39062 v 1.9375 z m 14.45312,-8.29687 v 1.75 h -1.5 v 3.34375 q 0,1.01562 0.0469,1.1875 0.0469,0.15625 0.1875,0.26562 0.15625,0.10938 0.375,0.10938 0.3125,0 0.89062,-0.20313 l 0.1875,1.70313 q -0.76562,0.32812 -1.73437,0.32812 -0.59375,0 -1.07813,-0.20312 -0.46875,-0.20313 -0.70312,-0.51563 -0.21875,-0.3125 -0.29688,-0.85937 -0.0781,-0.375 -0.0781,-1.54688 v -3.60937 h -1 v -1.75 h 1 v -1.65625 l 2.20312,-1.28125 v 2.9375 z m 3.17188,2.53125 -2,-0.35938 q 0.34375,-1.20312 1.15625,-1.78125 0.82812,-0.57812 2.4375,-0.57812 1.46875,0 2.1875,0.34375 0.71875,0.34375 1.01562,0.89062 0.29688,0.53125 0.29688,1.95313 l -0.0312,2.5625 q 0,1.09375 0.10937,1.625 0.10938,0.51562 0.39063,1.10937 h -2.17188 q -0.0781,-0.21875 -0.20312,-0.65625 -0.0625,-0.1875 -0.0781,-0.25 -0.5625,0.54688 -1.20312,0.82813 -0.64063,0.26562 -1.375,0.26562 -1.28125,0 -2.01563,-0.6875 -0.73437,-0.70312 -0.73437,-1.76562 0,-0.70313 0.32812,-1.25 0.34375,-0.5625 0.9375,-0.84375 0.60938,-0.29688 1.75,-0.51563 1.54688,-0.29687 2.14063,-0.54687 v -0.21875 q 0,-0.625 -0.3125,-0.89063 -0.3125,-0.28125 -1.1875,-0.28125 -0.57813,0 -0.90625,0.23438 -0.32813,0.23437 -0.53125,0.8125 z m 2.9375,1.78125 q -0.42188,0.14062 -1.34375,0.34375 -0.90625,0.1875 -1.1875,0.375 -0.4375,0.29687 -0.4375,0.76562 0,0.46875 0.34375,0.8125 0.34375,0.32813 0.875,0.32813 0.59375,0 1.14062,-0.39063 0.39063,-0.29687 0.51563,-0.73437 0.0937,-0.28125 0.0937,-1.0625 z m 4.25781,-4.3125 h 2.04688 v 1.21875 q 0.39062,-0.625 1.0625,-1.01563 0.6875,-0.39062 1.51562,-0.39062 1.45313,0 2.45313,1.14062 1.01562,1.125 1.01562,3.14063 0,2.07812 -1.01562,3.23437 -1.01563,1.15625 -2.46875,1.15625 -0.6875,0 -1.25,-0.26562 -0.54688,-0.28125 -1.17188,-0.95313 v 4.1875 h -2.1875 z m 2.17188,4 q 0,1.40625 0.54687,2.07812 0.5625,0.65625 1.35938,0.65625 0.76562,0 1.26562,-0.60937 0.51563,-0.60938 0.51563,-2.01563 0,-1.29687 -0.53125,-1.92187 -0.51563,-0.64063 -1.29688,-0.64063 -0.79687,0 -1.32812,0.625 -0.53125,0.60938 -0.53125,1.82813 z m 9.30468,-1.46875 -2,-0.35938 q 0.34375,-1.20312 1.15625,-1.78125 0.82813,-0.57812 2.4375,-0.57812 1.46875,0 2.1875,0.34375 0.71875,0.34375 1.01563,0.89062 0.29687,0.53125 0.29687,1.95313 l -0.0312,2.5625 q 0,1.09375 0.10938,1.625 0.10937,0.51562 0.39062,1.10937 h -2.17187 q -0.0781,-0.21875 -0.20313,-0.65625 -0.0625,-0.1875 -0.0781,-0.25 -0.5625,0.54688 -1.20313,0.82813 -0.64062,0.26562 -1.375,0.26562 -1.28125,0 -2.01562,-0.6875 -0.73438,-0.70312 -0.73438,-1.76562 0,-0.70313 0.32813,-1.25 0.34375,-0.5625 0.9375,-0.84375 0.60937,-0.29688 1.75,-0.51563 1.54687,-0.29687 2.14062,-0.54687 v -0.21875 q 0,-0.625 -0.3125,-0.89063 -0.3125,-0.28125 -1.1875,-0.28125 -0.57812,0 -0.90625,0.23438 -0.32812,0.23437 -0.53125,0.8125 z m 2.9375,1.78125 q -0.42187,0.14062 -1.34375,0.34375 -0.90625,0.1875 -1.1875,0.375 -0.4375,0.29687 -0.4375,0.76562 0,0.46875 0.34375,0.8125 0.34375,0.32813 0.875,0.32813 0.59375,0 1.14063,-0.39063 0.39062,-0.29687 0.51562,-0.73437 0.0937,-0.28125 0.0937,-1.0625 z m 3.53907,1.60937 2.20312,-0.32812 q 0.14063,0.64062 0.5625,0.96875 0.4375,0.32812 1.21875,0.32812 0.84375,0 1.28125,-0.3125 0.28125,-0.21875 0.28125,-0.57812 0,-0.25 -0.15625,-0.42188 -0.15625,-0.15625 -0.73437,-0.28125 -2.65625,-0.59375 -3.35938,-1.07812 -0.98437,-0.67188 -0.98437,-1.85938 0,-1.07812 0.84375,-1.8125 0.85937,-0.73437 2.64062,-0.73437 1.70313,0 2.53125,0.5625 0.82813,0.54687 1.14063,1.625 l -2.0625,0.39062 q -0.14063,-0.48437 -0.51563,-0.73437 -0.35937,-0.26563 -1.04687,-0.26563 -0.875,0 -1.25,0.23438 -0.25,0.17187 -0.25,0.45312 0,0.23438 0.21875,0.39063 0.29687,0.21875 2.04687,0.625 1.76563,0.39062 2.45313,0.96875 0.6875,0.59375 0.6875,1.64062 0,1.14063 -0.95313,1.96875 -0.95312,0.8125 -2.8125,0.8125 -1.70312,0 -2.6875,-0.6875 -0.98437,-0.6875 -1.29687,-1.875 z" />
  <path
     style="fill:#000000;fill-rule:nonzero"
     inkscape:connector-curvature="0"
     id="path57"
     d="m 306.50832,297.77701 h -1.51563 q -1.1875,-1.8125 -1.8125,-3.75 -0.625,-1.95312 -0.625,-3.78125 0,-2.25 0.76563,-4.26562 0.67187,-1.75 1.70312,-3.23438 h 1.5 q -1.0625,2.375 -1.46875,4.03125 -0.40625,1.65625 -0.40625,3.51563 0,1.28125 0.23438,2.625 0.25,1.34375 0.65625,2.5625 0.28125,0.79687 0.96875,2.29687 z m 1.625,-11.67187 h 2.04687 v 1.21875 q 0.39063,-0.625 1.0625,-1.01563 0.6875,-0.39062 1.51563,-0.39062 1.45312,0 2.45312,1.14062 1.01563,1.125 1.01563,3.14063 0,2.07812 -1.01563,3.23437 -1.01562,1.15625 -2.46875,1.15625 -0.6875,0 -1.25,-0.26562 -0.54687,-0.28125 -1.17187,-0.95313 v 4.1875 h -2.1875 z m 2.17187,4 q 0,1.40625 0.54688,2.07812 0.5625,0.65625 1.35937,0.65625 0.76563,0 1.26563,-0.60937 0.51562,-0.60938 0.51562,-2.01563 0,-1.29687 -0.53125,-1.92187 -0.51562,-0.64063 -1.29687,-0.64063 -0.79688,0 -1.32813,0.625 -0.53125,0.60938 -0.53125,1.82813 z m 9.75782,4.29687 h -2.1875 v -8.29687 h 2.03125 v 1.17187 q 0.53125,-0.82812 0.9375,-1.09375 0.42187,-0.26562 0.95312,-0.26562 0.75,0 1.45313,0.40625 l -0.6875,1.92187 q -0.54688,-0.35937 -1.03125,-0.35937 -0.45313,0 -0.78125,0.25 -0.3125,0.25 -0.5,0.92187 -0.1875,0.65625 -0.1875,2.78125 z m 8.92968,-2.64062 2.1875,0.35937 q -0.42187,1.20313 -1.32812,1.84375 -0.90625,0.625 -2.28125,0.625 -2.15625,0 -3.20313,-1.42187 -0.8125,-1.125 -0.8125,-2.85938 0,-2.0625 1.07813,-3.21875 1.07812,-1.17187 2.71875,-1.17187 1.85937,0 2.92187,1.21875 1.07813,1.21875 1.03125,3.75 h -5.5 q 0.0156,0.96875 0.51563,1.51562 0.51562,0.54688 1.28125,0.54688 0.51562,0 0.85937,-0.28125 0.35938,-0.28125 0.53125,-0.90625 z m 0.125,-2.21875 q -0.0156,-0.95313 -0.48437,-1.45313 -0.46875,-0.5 -1.14063,-0.5 -0.71875,0 -1.1875,0.53125 -0.46875,0.51563 -0.46875,1.42188 z m 3.19532,2.48437 2.20312,-0.32812 q 0.14063,0.64062 0.5625,0.96875 0.4375,0.32812 1.21875,0.32812 0.84375,0 1.28125,-0.3125 0.28125,-0.21875 0.28125,-0.57812 0,-0.25 -0.15625,-0.42188 -0.15625,-0.15625 -0.73437,-0.28125 -2.65625,-0.59375 -3.35938,-1.07812 -0.98437,-0.67188 -0.98437,-1.85938 0,-1.07812 0.84375,-1.8125 0.85937,-0.73437 2.64062,-0.73437 1.70313,0 2.53125,0.5625 0.82813,0.54687 1.14063,1.625 l -2.0625,0.39062 q -0.14063,-0.48437 -0.51563,-0.73437 -0.35937,-0.26563 -1.04687,-0.26563 -0.875,0 -1.25,0.23438 -0.25,0.17187 -0.25,0.45312 0,0.23438 0.21875,0.39063 0.29687,0.21875 2.04687,0.625 1.76563,0.39062 2.45313,0.96875 0.6875,0.59375 0.6875,1.64062 0,1.14063 -0.95313,1.96875 -0.95312,0.8125 -2.8125,0.8125 -1.70312,0 -2.6875,-0.6875 -0.98437,-0.6875 -1.29687,-1.875 z m 14.47656,-0.26562 2.1875,0.35937 q -0.42188,1.20313 -1.32813,1.84375 -0.90625,0.625 -2.28125,0.625 -2.15625,0 -3.20312,-1.42187 -0.8125,-1.125 -0.8125,-2.85938 0,-2.0625 1.07812,-3.21875 1.07813,-1.17187 2.71875,-1.17187 1.85938,0 2.92188,1.21875 1.07812,1.21875 1.03125,3.75 h -5.5 q 0.0156,0.96875 0.51562,1.51562 0.51563,0.54688 1.28125,0.54688 0.51563,0 0.85938,-0.28125 0.35937,-0.28125 0.53125,-0.90625 z m 0.125,-2.21875 q -0.0156,-0.95313 -0.48438,-1.45313 -0.46875,-0.5 -1.14062,-0.5 -0.71875,0 -1.1875,0.53125 -0.46875,0.51563 -0.46875,1.42188 z m 11.52344,4.85937 h -2.20313 v -4.23437 q 0,-1.34375 -0.14062,-1.73438 -0.14063,-0.40625 -0.45313,-0.625 -0.3125,-0.21875 -0.76562,-0.21875 -0.5625,0 -1.01563,0.3125 -0.45312,0.3125 -0.625,0.82813 -0.17187,0.51562 -0.17187,1.90625 v 3.76562 h -2.1875 v -8.29687 h 2.03125 v 1.21875 q 1.09375,-1.40625 2.73437,-1.40625 0.73438,0 1.32813,0.26562 0.60937,0.25 0.90625,0.65625 0.3125,0.40625 0.4375,0.92188 0.125,0.51562 0.125,1.48437 z m 9.46093,-5.84375 -2.17187,0.39063 q -0.10938,-0.65625 -0.5,-0.98438 -0.375,-0.32812 -1,-0.32812 -0.8125,0 -1.3125,0.57812 -0.48438,0.5625 -0.48438,1.89063 0,1.46875 0.5,2.07812 0.5,0.60938 1.32813,0.60938 0.625,0 1.01562,-0.34375 0.40625,-0.35938 0.57813,-1.23438 l 2.15625,0.375 q -0.34375,1.48438 -1.29688,2.25 -0.95312,0.75 -2.54687,0.75 -1.82813,0 -2.90625,-1.14062 -1.07813,-1.15625 -1.07813,-3.1875 0,-2.0625 1.07813,-3.20313 1.09375,-1.14062 2.9375,-1.14062 1.51562,0 2.40625,0.65625 0.90625,0.64062 1.29687,1.98437 z m 1.66407,-3.57812 v -2.03125 h 2.1875 v 2.03125 z m 0,9.42187 v -8.29687 h 2.1875 v 8.29687 z m 6.08593,-5.76562 -2,-0.35938 q 0.34375,-1.20312 1.15625,-1.78125 0.82813,-0.57812 2.4375,-0.57812 1.46875,0 2.1875,0.34375 0.71875,0.34375 1.01563,0.89062 0.29687,0.53125 0.29687,1.95313 l -0.0312,2.5625 q 0,1.09375 0.10938,1.625 0.10937,0.51562 0.39062,1.10937 h -2.17187 q -0.0781,-0.21875 -0.20313,-0.65625 -0.0625,-0.1875 -0.0781,-0.25 -0.5625,0.54688 -1.20313,0.82813 -0.64062,0.26562 -1.375,0.26562 -1.28125,0 -2.01562,-0.6875 -0.73438,-0.70312 -0.73438,-1.76562 0,-0.70313 0.32813,-1.25 0.34375,-0.5625 0.9375,-0.84375 0.60937,-0.29688 1.75,-0.51563 1.54687,-0.29687 2.14062,-0.54687 v -0.21875 q 0,-0.625 -0.3125,-0.89063 -0.3125,-0.28125 -1.1875,-0.28125 -0.57812,0 -0.90625,0.23438 -0.32812,0.23437 -0.53125,0.8125 z m 2.9375,1.78125 q -0.42187,0.14062 -1.34375,0.34375 -0.90625,0.1875 -1.1875,0.375 -0.4375,0.29687 -0.4375,0.76562 0,0.46875 0.34375,0.8125 0.34375,0.32813 0.875,0.32813 0.59375,0 1.14063,-0.39063 0.39062,-0.29687 0.51562,-0.73437 0.0937,-0.28125 0.0937,-1.0625 z m 4.32032,-5.4375 v -2.03125 h 2.1875 v 2.03125 z m 0,9.42187 v -8.29687 h 2.1875 v 8.29687 z m 3.66406,-2.375 2.20312,-0.32812 q 0.14063,0.64062 0.5625,0.96875 0.4375,0.32812 1.21875,0.32812 0.84375,0 1.28125,-0.3125 0.28125,-0.21875 0.28125,-0.57812 0,-0.25 -0.15625,-0.42188 -0.15625,-0.15625 -0.73437,-0.28125 -2.65625,-0.59375 -3.35938,-1.07812 -0.98437,-0.67188 -0.98437,-1.85938 0,-1.07812 0.84375,-1.8125 0.85937,-0.73437 2.64062,-0.73437 1.70313,0 2.53125,0.5625 0.82813,0.54687 1.14063,1.625 l -2.0625,0.39062 q -0.14063,-0.48437 -0.51563,-0.73437 -0.35937,-0.26563 -1.04687,-0.26563 -0.875,0 -1.25,0.23438 -0.25,0.17187 -0.25,0.45312 0,0.23438 0.21875,0.39063 0.29687,0.21875 2.04687,0.625 1.76563,0.39062 2.45313,0.96875 0.6875,0.59375 0.6875,1.64062 0,1.14063 -0.95313,1.96875 -0.95312,0.8125 -2.8125,0.8125 -1.70312,0 -2.6875,-0.6875 -0.98437,-0.6875 -1.29687,-1.875 z m 13.60937,-1.89062 q 0,-1.09375 0.53125,-2.10938 0.54688,-1.03125 1.53125,-1.5625 1,-0.54687 2.21875,-0.54687 1.875,0 3.07813,1.21875 1.20312,1.21875 1.20312,3.09375 0,1.875 -1.21875,3.125 -1.20312,1.23437 -3.04687,1.23437 -1.14063,0 -2.1875,-0.51562 -1.03125,-0.51563 -1.57813,-1.51563 -0.53125,-1 -0.53125,-2.42187 z m 2.25,0.10937 q 0,1.23438 0.57813,1.89063 0.59375,0.65625 1.45312,0.65625 0.85938,0 1.4375,-0.65625 0.59375,-0.65625 0.59375,-1.90625 0,-1.21875 -0.59375,-1.875 -0.57812,-0.65625 -1.4375,-0.65625 -0.85937,0 -1.45312,0.65625 -0.57813,0.65625 -0.57813,1.89062 z m 13.49219,4.15625 v -1.25 q -0.45312,0.67188 -1.1875,1.0625 -0.73437,0.375 -1.5625,0.375 -0.82812,0 -1.5,-0.35937 -0.65625,-0.375 -0.95312,-1.03125 -0.29688,-0.67188 -0.29688,-1.84375 v -5.25 h 2.1875 v 3.8125 q 0,1.75 0.125,2.14062 0.125,0.39063 0.4375,0.625 0.32813,0.23438 0.8125,0.23438 0.5625,0 1,-0.3125 0.45313,-0.3125 0.60938,-0.76563 0.17187,-0.45312 0.17187,-2.23437 v -3.5 h 2.20313 v 8.29687 z" />
  <path
     style="fill:#000000;fill-rule:nonzero"
     inkscape:connector-curvature="0"
     id="path59"
     d="m 332.59817,309.13638 q 0,-1.09375 0.53125,-2.10938 0.54687,-1.03125 1.53125,-1.5625 1,-0.54687 2.21875,-0.54687 1.875,0 3.07812,1.21875 1.20313,1.21875 1.20313,3.09375 0,1.875 -1.21875,3.125 -1.20313,1.23437 -3.04688,1.23437 -1.14062,0 -2.1875,-0.51562 -1.03125,-0.51563 -1.57812,-1.51563 -0.53125,-1 -0.53125,-2.42187 z m 2.25,0.10937 q 0,1.23438 0.57812,1.89063 0.59375,0.65625 1.45313,0.65625 0.85937,0 1.4375,-0.65625 0.59375,-0.65625 0.59375,-1.90625 0,-1.21875 -0.59375,-1.875 -0.57813,-0.65625 -1.4375,-0.65625 -0.85938,0 -1.45313,0.65625 -0.57812,0.65625 -0.57812,1.89062 z m 15.58594,4.15625 h -2.20313 v -4.23437 q 0,-1.34375 -0.14062,-1.73438 -0.14063,-0.40625 -0.45313,-0.625 -0.3125,-0.21875 -0.76562,-0.21875 -0.5625,0 -1.01563,0.3125 -0.45312,0.3125 -0.625,0.82813 -0.17187,0.51562 -0.17187,1.90625 v 3.76562 h -2.1875 v -8.29687 h 2.03125 v 1.21875 q 1.09375,-1.40625 2.73437,-1.40625 0.73438,0 1.32813,0.26562 0.60937,0.25 0.90625,0.65625 0.3125,0.40625 0.4375,0.92188 0.125,0.51562 0.125,1.48437 z m 6.67187,0 v -11.45312 h 2.1875 V 313.402 Z m 4.44531,-9.42187 v -2.03125 h 2.1875 v 2.03125 z m 0,9.42187 v -8.29687 h 2.1875 v 8.29687 z m 11.99219,0 h -2.20312 v -4.23437 q 0,-1.34375 -0.14063,-1.73438 -0.14062,-0.40625 -0.45312,-0.625 -0.3125,-0.21875 -0.76563,-0.21875 -0.5625,0 -1.01562,0.3125 -0.45313,0.3125 -0.625,0.82813 -0.17188,0.51562 -0.17188,1.90625 v 3.76562 h -2.1875 v -8.29687 h 2.03125 v 1.21875 q 1.09375,-1.40625 2.73438,-1.40625 0.73437,0 1.32812,0.26562 0.60938,0.25 0.90625,0.65625 0.3125,0.40625 0.4375,0.92188 0.125,0.51562 0.125,1.48437 z m 7.02344,-2.64062 2.1875,0.35937 q -0.42188,1.20313 -1.32813,1.84375 -0.90625,0.625 -2.28125,0.625 -2.15625,0 -3.20312,-1.42187 -0.8125,-1.125 -0.8125,-2.85938 0,-2.0625 1.07812,-3.21875 1.07813,-1.17187 2.71875,-1.17187 1.85938,0 2.92188,1.21875 1.07812,1.21875 1.03125,3.75 h -5.5 q 0.0156,0.96875 0.51562,1.51562 0.51563,0.54688 1.28125,0.54688 0.51563,0 0.85938,-0.28125 0.35937,-0.28125 0.53125,-0.90625 z m 0.125,-2.21875 q -0.0156,-0.95313 -0.48438,-1.45313 -0.46875,-0.5 -1.14062,-0.5 -0.71875,0 -1.1875,0.53125 -0.46875,0.51563 -0.46875,1.42188 z m 3.36719,8.23437 q 0.64062,-1.39062 0.90625,-2.14062 0.26562,-0.73438 0.48437,-1.70313 0.23438,-0.98437 0.34375,-1.84375 0.10938,-0.875 0.10938,-1.79687 0,-1.85938 -0.40625,-3.51563 -0.39063,-1.65625 -1.45313,-4.03125 h 1.48438 q 1.1875,1.6875 1.82812,3.57813 0.65625,1.875 0.65625,3.8125 0,1.625 -0.51562,3.5 -0.57813,2.09375 -1.92188,4.14062 z" />
  <path
     style="fill:#000000;fill-opacity:0;fill-rule:evenodd"
     inkscape:connector-curvature="0"
     id="path61"
     d="m 175.24934,366.52231 105.6378,-84.97638" />
  <path
     style="fill-rule:evenodd;stroke:#000000;stroke-width:2;stroke-linecap:butt;stroke-linejoin:round"
     inkscape:connector-curvature="0"
     id="path63"
     d="m 175.24934,366.52231 96.28752,-77.4549" />
  <path
     style="fill:#000000;fill-rule:evenodd;stroke:#000000;stroke-width:2;stroke-linecap:butt"
     inkscape:connector-curvature="0"
     id="path65"
     d="m 273.60745,291.64142 5.0015,-8.26288 -9.14264,3.11484 z" />
  <path
     style="fill:#000000;fill-opacity:0;fill-rule:evenodd"
     inkscape:connector-curvature="0"
     id="path67"
     d="M 176.46896,366.01081 304.02801,332.81397" />
  <path
     style="fill-rule:evenodd;stroke:#000000;stroke-width:2;stroke-linecap:butt;stroke-linejoin:round"
     inkscape:connector-curvature="0"
     id="path69"
     d="M 176.46896,366.01078 292.41482,335.83625" />
  <path
     style="fill:#000000;fill-rule:evenodd;stroke:#000000;stroke-width:2;stroke-linecap:butt"
     inkscape:connector-curvature="0"
     id="path71"
     d="m 293.24686,339.03321 7.9516,-5.48288 -9.61563,-0.91107 z" />
  <path
     style="fill:#000000;fill-opacity:0;fill-rule:evenodd"
     inkscape:connector-curvature="0"
     id="path73"
     d="M 177.56955,363.7848 284.24673,316.00526" />
  <path
     style="fill-rule:evenodd;stroke:#000000;stroke-width:2;stroke-linecap:butt;stroke-linejoin:round"
     inkscape:connector-curvature="0"
     id="path75"
     d="m 177.56955,363.7848 95.72549,-42.87439" />
  <path
     style="fill:#000000;fill-rule:evenodd;stroke:#000000;stroke-width:2;stroke-linecap:butt"
     inkscape:connector-curvature="0"
     id="path77"
     d="m 274.64536,323.92528 6.93298,-6.72488 -9.63363,0.69513 z" />
  <path
     style="fill:#000000;fill-opacity:0;fill-rule:evenodd"
     inkscape:connector-curvature="0"
     id="path79"
     d="M 438.90289,281.54594 517.58004,256.3491" />
  <path
     style="fill-rule:evenodd;stroke:#000000;stroke-width:2;stroke-linecap:butt;stroke-linejoin:round"
     inkscape:connector-curvature="0"
     id="path81"
     d="m 438.90289,281.54594 67.24893,-21.5369" />
  <path
     style="fill:#000000;fill-rule:evenodd;stroke:#000000;stroke-width:2;stroke-linecap:butt"
     inkscape:connector-curvature="0"
     id="path83"
     d="m 507.15942,263.15513 7.63617,-5.91428 -9.65131,-0.37786 z" />
  <path
     style="fill:#cfe2f3;fill-rule:evenodd"
     inkscape:connector-curvature="0"
     id="path85"
     d="m 517.56952,256.3386 v 0 c 0,-40.04283 37.55872,-72.50395 83.88977,-72.50395 v 0 c 46.33105,0 83.88977,32.46112 83.88977,72.50395 v 0 c 0,40.04282 -37.55872,72.50394 -83.88977,72.50394 v 0 c -46.33106,0 -83.88977,-32.46112 -83.88977,-72.50394 z" />
  <path
     style="fill-rule:evenodd;stroke:#000000;stroke-width:2;stroke-linecap:butt;stroke-linejoin:round"
     inkscape:connector-curvature="0"
     id="path87"
     d="m 517.56952,256.3386 v 0 c 0,-40.04283 37.55872,-72.50395 83.88977,-72.50395 v 0 c 46.33105,0 83.88977,32.46112 83.88977,72.50395 v 0 c 0,40.04282 -37.55872,72.50394 -83.88977,72.50394 v 0 c -46.33106,0 -83.88977,-32.46112 -83.88977,-72.50394 z" />
  <path
     style="fill:#000000;fill-rule:nonzero"
     inkscape:connector-curvature="0"
     id="path89"
     d="m 552.32779,229.69858 v -11.45313 h 7.84375 v 1.9375 h -5.53125 v 2.70313 h 4.78125 v 1.9375 h -4.78125 v 4.875 z m 14.53906,-2.64063 2.1875,0.35938 q -0.42187,1.20312 -1.32812,1.84375 -0.90625,0.625 -2.28125,0.625 -2.15625,0 -3.20313,-1.42188 -0.8125,-1.125 -0.8125,-2.85937 0,-2.0625 1.07813,-3.21875 1.07812,-1.17188 2.71875,-1.17188 1.85937,0 2.92187,1.21875 1.07813,1.21875 1.03125,3.75 h -5.5 q 0.0156,0.96875 0.51563,1.51563 0.51562,0.54687 1.28125,0.54687 0.51562,0 0.85937,-0.28125 0.35938,-0.28125 0.53125,-0.90625 z m 0.125,-2.21875 q -0.0156,-0.95312 -0.48437,-1.45312 -0.46875,-0.5 -1.14063,-0.5 -0.71875,0 -1.1875,0.53125 -0.46875,0.51562 -0.46875,1.42187 z m 6.07031,4.85938 h -2.1875 v -8.29688 h 2.03125 v 1.17188 q 0.53125,-0.82813 0.9375,-1.09375 0.42188,-0.26563 0.95313,-0.26563 0.75,0 1.45312,0.40625 l -0.6875,1.92188 q -0.54687,-0.35938 -1.03125,-0.35938 -0.45312,0 -0.78125,0.25 -0.3125,0.25 -0.5,0.92188 -0.1875,0.65625 -0.1875,2.78125 z m 6.22657,0 h -2.1875 v -8.29688 h 2.03125 v 1.17188 q 0.53125,-0.82813 0.9375,-1.09375 0.42187,-0.26563 0.95312,-0.26563 0.75,0 1.45313,0.40625 l -0.6875,1.92188 q -0.54688,-0.35938 -1.03125,-0.35938 -0.45313,0 -0.78125,0.25 -0.3125,0.25 -0.5,0.92188 -0.1875,0.65625 -0.1875,2.78125 z m 5.77343,-5.76563 -2,-0.35937 q 0.34375,-1.20313 1.15625,-1.78125 0.82813,-0.57813 2.4375,-0.57813 1.46875,0 2.1875,0.34375 0.71875,0.34375 1.01563,0.89063 0.29687,0.53125 0.29687,1.95312 l -0.0312,2.5625 q 0,1.09375 0.10938,1.625 0.10937,0.51563 0.39062,1.10938 h -2.17187 q -0.0781,-0.21875 -0.20313,-0.65625 -0.0625,-0.1875 -0.0781,-0.25 -0.5625,0.54687 -1.20313,0.82812 -0.64062,0.26563 -1.375,0.26563 -1.28125,0 -2.01562,-0.6875 -0.73438,-0.70313 -0.73438,-1.76563 0,-0.70312 0.32813,-1.25 0.34375,-0.5625 0.9375,-0.84375 0.60937,-0.29687 1.75,-0.51562 1.54687,-0.29688 2.14062,-0.54688 v -0.21875 q 0,-0.625 -0.3125,-0.89062 -0.3125,-0.28125 -1.1875,-0.28125 -0.57812,0 -0.90625,0.23437 -0.32812,0.23438 -0.53125,0.8125 z m 2.9375,1.78125 q -0.42187,0.14063 -1.34375,0.34375 -0.90625,0.1875 -1.1875,0.375 -0.4375,0.29688 -0.4375,0.76563 0,0.46875 0.34375,0.8125 0.34375,0.32812 0.875,0.32812 0.59375,0 1.14063,-0.39062 0.39062,-0.29688 0.51562,-0.73438 0.0937,-0.28125 0.0937,-1.0625 z m 4.14844,-4.3125 h 2.03125 v 1.125 q 1.07813,-1.3125 2.57813,-1.3125 0.79687,0 1.375,0.32813 0.59375,0.32812 0.96875,0.98437 0.54687,-0.65625 1.17187,-0.98437 0.64063,-0.32813 1.35938,-0.32813 0.92187,0 1.54687,0.375 0.64063,0.35938 0.95313,1.07813 0.21875,0.53125 0.21875,1.71875 v 5.3125 h -2.1875 v -4.75 q 0,-1.23438 -0.23438,-1.59375 -0.29687,-0.46875 -0.9375,-0.46875 -0.45312,0 -0.85937,0.28125 -0.40625,0.28125 -0.59375,0.82812 -0.17188,0.54688 -0.17188,1.71875 v 3.98438 h -2.20312 v -4.54688 q 0,-1.21875 -0.125,-1.5625 -0.10938,-0.35937 -0.35938,-0.53125 -0.23437,-0.17187 -0.65625,-0.17187 -0.51562,0 -0.92187,0.28125 -0.40625,0.26562 -0.57813,0.78125 -0.17187,0.51562 -0.17187,1.71875 v 4.03125 h -2.20313 z m 19.19531,5.65625 2.1875,0.35938 q -0.42187,1.20312 -1.32812,1.84375 -0.90625,0.625 -2.28125,0.625 -2.15625,0 -3.20313,-1.42188 -0.8125,-1.125 -0.8125,-2.85937 0,-2.0625 1.07813,-3.21875 1.07812,-1.17188 2.71875,-1.17188 1.85937,0 2.92187,1.21875 1.07813,1.21875 1.03125,3.75 h -5.5 q 0.0156,0.96875 0.51563,1.51563 0.51562,0.54687 1.28125,0.54687 0.51562,0 0.85937,-0.28125 0.35938,-0.28125 0.53125,-0.90625 z m 0.125,-2.21875 q -0.0156,-0.95312 -0.48437,-1.45312 -0.46875,-0.5 -1.14063,-0.5 -0.71875,0 -1.1875,0.53125 -0.46875,0.51562 -0.46875,1.42187 z m 11.52344,4.85938 h -2.20312 v -4.23438 q 0,-1.34375 -0.14063,-1.73437 -0.14062,-0.40625 -0.45312,-0.625 -0.3125,-0.21875 -0.76563,-0.21875 -0.5625,0 -1.01562,0.3125 -0.45313,0.3125 -0.625,0.82812 -0.17188,0.51563 -0.17188,1.90625 v 3.76563 h -2.1875 v -8.29688 h 2.03125 v 1.21875 q 1.09375,-1.40625 2.73438,-1.40625 0.73437,0 1.32812,0.26563 0.60938,0.25 0.90625,0.65625 0.3125,0.40625 0.4375,0.92187 0.125,0.51563 0.125,1.48438 z m 6.02344,-8.29688 v 1.75 h -1.5 v 3.34375 q 0,1.01563 0.0469,1.1875 0.0469,0.15625 0.1875,0.26563 0.15625,0.10937 0.375,0.10937 0.3125,0 0.89063,-0.20312 l 0.1875,1.70312 q -0.76563,0.32813 -1.73438,0.32813 -0.59375,0 -1.07812,-0.20313 -0.46875,-0.20312 -0.70313,-0.51562 -0.21875,-0.3125 -0.29687,-0.85938 -0.0781,-0.375 -0.0781,-1.54687 v -3.60938 h -1 v -1.75 h 1 v -1.65625 l 2.20313,-1.28125 v 2.9375 z m 3.17187,2.53125 -2,-0.35937 q 0.34375,-1.20313 1.15625,-1.78125 0.82813,-0.57813 2.4375,-0.57813 1.46875,0 2.1875,0.34375 0.71875,0.34375 1.01563,0.89063 0.29687,0.53125 0.29687,1.95312 l -0.0312,2.5625 q 0,1.09375 0.10938,1.625 0.10937,0.51563 0.39062,1.10938 h -2.17187 q -0.0781,-0.21875 -0.20313,-0.65625 -0.0625,-0.1875 -0.0781,-0.25 -0.5625,0.54687 -1.20313,0.82812 -0.64062,0.26563 -1.375,0.26563 -1.28125,0 -2.01562,-0.6875 -0.73438,-0.70313 -0.73438,-1.76563 0,-0.70312 0.32813,-1.25 0.34375,-0.5625 0.9375,-0.84375 0.60937,-0.29687 1.75,-0.51562 1.54687,-0.29688 2.14062,-0.54688 v -0.21875 q 0,-0.625 -0.3125,-0.89062 -0.3125,-0.28125 -1.1875,-0.28125 -0.57812,0 -0.90625,0.23437 -0.32812,0.23438 -0.53125,0.8125 z m 2.9375,1.78125 q -0.42187,0.14063 -1.34375,0.34375 -0.90625,0.1875 -1.1875,0.375 -0.4375,0.29688 -0.4375,0.76563 0,0.46875 0.34375,0.8125 0.34375,0.32812 0.875,0.32812 0.59375,0 1.14063,-0.39062 0.39062,-0.29688 0.51562,-0.73438 0.0937,-0.28125 0.0937,-1.0625 z m 3.53907,1.60938 2.20312,-0.32813 q 0.14063,0.64063 0.5625,0.96875 0.4375,0.32813 1.21875,0.32813 0.84375,0 1.28125,-0.3125 0.28125,-0.21875 0.28125,-0.57813 0,-0.25 -0.15625,-0.42187 -0.15625,-0.15625 -0.73437,-0.28125 -2.65625,-0.59375 -3.35938,-1.07813 -0.98437,-0.67187 -0.98437,-1.85937 0,-1.07813 0.84375,-1.8125 0.85937,-0.73438 2.64062,-0.73438 1.70313,0 2.53125,0.5625 0.82813,0.54688 1.14063,1.625 l -2.0625,0.39063 q -0.14063,-0.48438 -0.51563,-0.73438 -0.35937,-0.26562 -1.04687,-0.26562 -0.875,0 -1.25,0.23437 -0.25,0.17188 -0.25,0.45313 0,0.23437 0.21875,0.39062 0.29687,0.21875 2.04687,0.625 1.76563,0.39063 2.45313,0.96875 0.6875,0.59375 0.6875,1.64063 0,1.14062 -0.95313,1.96875 -0.95312,0.8125 -2.8125,0.8125 -1.70312,0 -2.6875,-0.6875 -0.98437,-0.6875 -1.29687,-1.875 z" />
  <path
     style="fill:#000000;fill-rule:nonzero"
     inkscape:connector-curvature="0"
     id="path91"
     d="m 553.71842,245.89108 q -0.8125,-1 -1.35938,-2.35938 -0.54687,-1.35937 -0.54687,-2.8125 0,-1.26562 0.40625,-2.4375 0.48437,-1.35937 1.5,-2.71875 h 0.6875 q -0.65625,1.125 -0.85938,1.60938 -0.32812,0.73437 -0.51562,1.54687 -0.23438,1 -0.23438,2.01563 0,2.57812 1.60938,5.15625 z m 1.92364,-2.3125 v -4.95313 h -0.84375 v -0.75 h 0.84375 v -0.60937 q 0,-0.57813 0.10938,-0.85938 0.14062,-0.375 0.48437,-0.60937 0.35938,-0.23438 0.98438,-0.23438 0.40625,0 0.90625,0.10938 l -0.14063,0.84375 q -0.3125,-0.0625 -0.57812,-0.0625 -0.4375,0 -0.625,0.1875 -0.17188,0.1875 -0.17188,0.70312 v 0.53125 h 1.10938 v 0.75 h -1.10938 v 4.95313 z m 2.36689,-2.85938 q 0,-1.57812 0.89062,-2.34375 0.73438,-0.625 1.79688,-0.625 1.17187,0 1.90625,0.76563 0.75,0.76562 0.75,2.125 0,1.10937 -0.32813,1.75 -0.32812,0.625 -0.96875,0.96875 -0.625,0.34375 -1.35937,0.34375 -1.20313,0 -1.95313,-0.76563 -0.73437,-0.76562 -0.73437,-2.21875 z m 1,0 q 0,1.10938 0.46875,1.65625 0.48437,0.53125 1.21875,0.53125 0.71875,0 1.1875,-0.54687 0.48437,-0.54688 0.48437,-1.67188 0,-1.04687 -0.48437,-1.59375 -0.48438,-0.54687 -1.1875,-0.54687 -0.73438,0 -1.21875,0.54687 -0.46875,0.53125 -0.46875,1.625 z m 0.82812,-3.54687 0.71875,-1.51563 h 1.26563 l -1.17188,1.51563 z m 4.45777,6.40625 v -5.70313 h 0.85937 v 0.85938 q 0.34375,-0.60938 0.625,-0.79688 0.28125,-0.1875 0.60938,-0.1875 0.5,0 1,0.3125 l -0.32813,0.89063 q -0.35937,-0.20313 -0.71875,-0.20313 -0.3125,0 -0.5625,0.1875 -0.25,0.1875 -0.35937,0.53125 -0.15625,0.51563 -0.15625,1.125 v 2.98438 z m 7.29858,0 v -0.84375 q -0.67188,0.96875 -1.8125,0.96875 -0.5,0 -0.95313,-0.1875 -0.4375,-0.20313 -0.65625,-0.48438 -0.20312,-0.29687 -0.28125,-0.71875 -0.0625,-0.28125 -0.0625,-0.90625 v -3.53125 h 0.96875 v 3.15625 q 0,0.76563 0.0625,1.03125 0.0937,0.375 0.375,0.59375 0.29688,0.21875 0.73438,0.21875 0.4375,0 0.8125,-0.21875 0.39062,-0.23437 0.54687,-0.60937 0.15625,-0.39063 0.15625,-1.10938 v -3.0625 h 0.96875 v 5.70313 z m 2.17651,0 v -5.70313 h 0.875 v 0.79688 q 0.26563,-0.42188 0.70313,-0.67188 0.45312,-0.25 1.01562,-0.25 0.64063,0 1.04688,0.26563 0.40625,0.25 0.57812,0.73437 0.67188,-1 1.75,-1 0.85938,0 1.3125,0.46875 0.45313,0.46875 0.45313,1.4375 v 3.92188 h -0.95313 v -3.59375 q 0,-0.57813 -0.0937,-0.82813 -0.0937,-0.26562 -0.34375,-0.42187 -0.25,-0.15625 -0.57812,-0.15625 -0.60938,0 -1.01563,0.40625 -0.39062,0.40625 -0.39062,1.28125 v 3.3125 h -0.96875 v -3.70313 q 0,-0.64062 -0.23438,-0.96875 -0.23437,-0.32812 -0.76562,-0.32812 -0.40625,0 -0.76563,0.21875 -0.34375,0.21875 -0.5,0.64062 -0.15625,0.40625 -0.15625,1.1875 v 2.95313 z m 9.14234,0 v -1.09375 h 1.09375 v 1.09375 q 0,0.60937 -0.21875,0.98437 -0.20313,0.375 -0.67188,0.57813 l -0.28125,-0.42188 q 0.3125,-0.125 0.45313,-0.39062 0.15625,-0.26563 0.17187,-0.75 z m 9.39007,-2.09375 0.9375,0.125 q -0.14062,0.98437 -0.79687,1.54687 -0.64063,0.54688 -1.5625,0.54688 -1.17188,0 -1.89063,-0.76563 -0.70312,-0.76562 -0.70312,-2.1875 0,-0.92187 0.29687,-1.60937 0.3125,-0.70313 0.9375,-1.04688 0.625,-0.34375 1.35938,-0.34375 0.92187,0 1.51562,0.46875 0.59375,0.46875 0.76563,1.32813 l -0.95313,0.14062 q -0.125,-0.5625 -0.46875,-0.84375 -0.34375,-0.29687 -0.82812,-0.29687 -0.71875,0 -1.1875,0.53125 -0.45313,0.51562 -0.45313,1.64062 0,1.15625 0.4375,1.67188 0.4375,0.51562 1.15625,0.51562 0.5625,0 0.9375,-0.34375 0.39063,-0.34375 0.5,-1.07812 z m 1.23438,-0.76563 q 0,-1.57812 0.89062,-2.34375 0.73438,-0.625 1.79688,-0.625 1.17187,0 1.90625,0.76563 0.75,0.76562 0.75,2.125 0,1.10937 -0.32813,1.75 -0.32812,0.625 -0.96875,0.96875 -0.625,0.34375 -1.35937,0.34375 -1.20313,0 -1.95313,-0.76563 -0.73437,-0.76562 -0.73437,-2.21875 z m 1,0 q 0,1.10938 0.46875,1.65625 0.48437,0.53125 1.21875,0.53125 0.71875,0 1.1875,-0.54687 0.48437,-0.54688 0.48437,-1.67188 0,-1.04687 -0.48437,-1.59375 -0.48438,-0.54687 -1.1875,-0.54687 -0.73438,0 -1.21875,0.54687 -0.46875,0.53125 -0.46875,1.625 z m 5.28589,2.85938 v -5.70313 h 0.875 v 0.8125 q 0.625,-0.9375 1.8125,-0.9375 0.51562,0 0.95312,0.1875 0.4375,0.17188 0.64063,0.48438 0.21875,0.29687 0.3125,0.70312 0.0469,0.28125 0.0469,0.95313 v 3.5 h -0.96875 v -3.46875 q 0,-0.59375 -0.10937,-0.875 -0.10938,-0.29688 -0.40625,-0.46875 -0.28125,-0.1875 -0.67188,-0.1875 -0.60937,0 -1.0625,0.39062 -0.45312,0.39063 -0.45312,1.5 v 3.10938 z m 5.55145,-1.70313 0.95312,-0.15625 q 0.0781,0.57813 0.4375,0.89063 0.375,0.29687 1.03125,0.29687 0.67188,0 0.98438,-0.26562 0.32812,-0.26563 0.32812,-0.64063 0,-0.32812 -0.28125,-0.51562 -0.20312,-0.125 -0.98437,-0.32813 -1.0625,-0.26562 -1.48438,-0.45312 -0.40625,-0.20313 -0.625,-0.54688 -0.20312,-0.34375 -0.20312,-0.76562 0,-0.39063 0.17187,-0.70313 0.17188,-0.32812 0.48438,-0.54687 0.21875,-0.17188 0.60937,-0.28125 0.39063,-0.10938 0.82813,-0.10938 0.67187,0 1.17187,0.1875 0.51563,0.1875 0.75,0.53125 0.25,0.32813 0.34375,0.875 l -0.9375,0.125 q -0.0781,-0.4375 -0.39062,-0.67187 -0.29688,-0.25 -0.85938,-0.25 -0.67187,0 -0.95312,0.21875 -0.28125,0.21875 -0.28125,0.51562 0,0.1875 0.10937,0.32813 0.125,0.15625 0.375,0.26562 0.14063,0.0469 0.85938,0.25 1.01562,0.26563 1.42187,0.4375 0.40625,0.17188 0.64063,0.51563 0.23437,0.32812 0.23437,0.82812 0,0.48438 -0.28125,0.90625 -0.28125,0.42188 -0.8125,0.65625 -0.53125,0.23438 -1.20312,0.23438 -1.10938,0 -1.70313,-0.45313 -0.57812,-0.46875 -0.73437,-1.375 z m 9.45312,1.70313 v -0.84375 q -0.67187,0.96875 -1.8125,0.96875 -0.5,0 -0.95312,-0.1875 -0.4375,-0.20313 -0.65625,-0.48438 -0.20313,-0.29687 -0.28125,-0.71875 -0.0625,-0.28125 -0.0625,-0.90625 v -3.53125 h 0.96875 v 3.15625 q 0,0.76563 0.0625,1.03125 0.0937,0.375 0.375,0.59375 0.29687,0.21875 0.73437,0.21875 0.4375,0 0.8125,-0.21875 0.39063,-0.23437 0.54688,-0.60937 0.15625,-0.39063 0.15625,-1.10938 v -3.0625 h 0.96875 v 5.70313 z m 2.16089,0 v -7.875 h 0.96875 v 7.875 z m 4.50812,-0.85938 0.125,0.84375 q -0.40625,0.0937 -0.71875,0.0937 -0.53125,0 -0.82812,-0.17187 -0.28125,-0.17188 -0.40625,-0.4375 -0.10938,-0.26563 -0.10938,-1.14063 v -3.28125 h -0.71875 v -0.75 h 0.71875 v -1.40625 l 0.95313,-0.59375 v 2 h 0.98437 v 0.75 h -0.98437 v 3.34375 q 0,0.40625 0.0469,0.53125 0.0625,0.10938 0.17188,0.1875 0.125,0.0625 0.32812,0.0625 0.17188,0 0.4375,-0.0312 z m 4.57001,0.15625 q -0.54688,0.45313 -1.04688,0.64063 -0.48437,0.1875 -1.0625,0.1875 -0.9375,0 -1.45312,-0.45313 -0.5,-0.46875 -0.5,-1.17187 0,-0.42188 0.1875,-0.76563 0.20312,-0.34375 0.5,-0.54687 0.3125,-0.21875 0.70312,-0.32813 0.28125,-0.0781 0.85938,-0.14062 1.17187,-0.14063 1.71875,-0.34375 0.0156,-0.1875 0.0156,-0.25 0,-0.59375 -0.28125,-0.82813 -0.35937,-0.32812 -1.09375,-0.32812 -0.6875,0 -1.01562,0.23437 -0.3125,0.23438 -0.46875,0.84375 l -0.95313,-0.125 q 0.125,-0.60937 0.42188,-0.98437 0.29687,-0.375 0.85937,-0.5625 0.5625,-0.20313 1.29688,-0.20313 0.73437,0 1.1875,0.17188 0.45312,0.17187 0.65625,0.4375 0.21875,0.25 0.3125,0.64062 0.0469,0.25 0.0469,0.90625 v 1.28125 q 0,1.34375 0.0625,1.70313 0.0625,0.35937 0.25,0.6875 h -1.01562 q -0.15625,-0.29688 -0.1875,-0.70313 z m -0.0937,-2.15625 q -0.51563,0.21875 -1.57813,0.35938 -0.59375,0.0937 -0.84375,0.20312 -0.23437,0.0937 -0.375,0.3125 -0.14062,0.20313 -0.14062,0.45313 0,0.39062 0.29687,0.65625 0.29688,0.25 0.85938,0.25 0.5625,0 0.98437,-0.25 0.4375,-0.25 0.65625,-0.67188 0.14063,-0.32812 0.14063,-0.96875 z" />
  <path
     style="fill:#000000;fill-rule:nonzero"
     inkscape:connector-curvature="0"
     id="path93"
     d="m 553.71842,258.89108 q -0.8125,-1 -1.35938,-2.35938 -0.54687,-1.35937 -0.54687,-2.8125 0,-1.26562 0.40625,-2.4375 0.48437,-1.35937 1.5,-2.71875 h 0.6875 q -0.65625,1.125 -0.85938,1.60938 -0.32812,0.73437 -0.51562,1.54687 -0.23438,1 -0.23438,2.01563 0,2.57812 1.60938,5.15625 z m 5.42364,-4.40625 0.9375,0.125 q -0.14062,0.98437 -0.79687,1.54687 -0.64063,0.54688 -1.5625,0.54688 -1.17188,0 -1.89063,-0.76563 -0.70312,-0.76562 -0.70312,-2.1875 0,-0.92187 0.29687,-1.60937 0.3125,-0.70313 0.9375,-1.04688 0.625,-0.34375 1.35938,-0.34375 0.92187,0 1.51562,0.46875 0.59375,0.46875 0.76563,1.32813 l -0.95313,0.14062 q -0.125,-0.5625 -0.46875,-0.84375 -0.34375,-0.29687 -0.82812,-0.29687 -0.71875,0 -1.1875,0.53125 -0.45313,0.51562 -0.45313,1.64062 0,1.15625 0.4375,1.67188 0.4375,0.51562 1.15625,0.51562 0.5625,0 0.9375,-0.34375 0.39063,-0.34375 0.5,-1.07812 z m 1.23438,-0.76563 q 0,-1.57812 0.89062,-2.34375 0.73438,-0.625 1.79688,-0.625 1.17187,0 1.90625,0.76563 0.75,0.76562 0.75,2.125 0,1.10937 -0.32813,1.75 -0.32812,0.625 -0.96875,0.96875 -0.625,0.34375 -1.35937,0.34375 -1.20313,0 -1.95313,-0.76563 -0.73437,-0.76562 -0.73437,-2.21875 z m 1,0 q 0,1.10938 0.46875,1.65625 0.48437,0.53125 1.21875,0.53125 0.71875,0 1.1875,-0.54687 0.48437,-0.54688 0.48437,-1.67188 0,-1.04687 -0.48437,-1.59375 -0.48438,-0.54687 -1.1875,-0.54687 -0.73438,0 -1.21875,0.54687 -0.46875,0.53125 -0.46875,1.625 z m 5.28583,2.85938 v -5.70313 h 0.875 v 0.79688 q 0.26562,-0.42188 0.70312,-0.67188 0.45313,-0.25 1.01563,-0.25 0.64062,0 1.04687,0.26563 0.40625,0.25 0.57813,0.73437 0.67187,-1 1.75,-1 0.85937,0 1.3125,0.46875 0.45312,0.46875 0.45312,1.4375 v 3.92188 h -0.95312 v -3.59375 q 0,-0.57813 -0.0937,-0.82813 -0.0937,-0.26562 -0.34375,-0.42187 -0.25,-0.15625 -0.57813,-0.15625 -0.60937,0 -1.01562,0.40625 -0.39063,0.40625 -0.39063,1.28125 v 3.3125 h -0.96875 v -3.70313 q 0,-0.64062 -0.23437,-0.96875 -0.23438,-0.32812 -0.76563,-0.32812 -0.40625,0 -0.76562,0.21875 -0.34375,0.21875 -0.5,0.64062 -0.15625,0.40625 -0.15625,1.1875 v 2.95313 z m 12.78302,-1.84375 1,0.125 q -0.23438,0.875 -0.875,1.35937 -0.64063,0.48438 -1.625,0.48438 -1.25,0 -1.98438,-0.76563 -0.73437,-0.76562 -0.73437,-2.15625 0,-1.45312 0.73437,-2.23437 0.75,-0.79688 1.92188,-0.79688 1.15625,0 1.875,0.78125 0.71875,0.76563 0.71875,2.1875 0,0.0781 0,0.25 h -4.25 q 0.0469,0.9375 0.51562,1.4375 0.48438,0.5 1.20313,0.5 0.53125,0 0.90625,-0.26562 0.375,-0.28125 0.59375,-0.90625 z m -3.17188,-1.5625 h 3.1875 q -0.0625,-0.71875 -0.35937,-1.07813 -0.46875,-0.54687 -1.20313,-0.54687 -0.67187,0 -1.125,0.45312 -0.45312,0.4375 -0.5,1.17188 z m 5.19214,3.40625 v -5.70313 h 0.875 v 0.8125 q 0.625,-0.9375 1.8125,-0.9375 0.51563,0 0.95313,0.1875 0.4375,0.17188 0.64062,0.48438 0.21875,0.29687 0.3125,0.70312 0.0469,0.28125 0.0469,0.95313 v 3.5 h -0.96875 v -3.46875 q 0,-0.59375 -0.10938,-0.875 -0.10937,-0.29688 -0.40625,-0.46875 -0.28125,-0.1875 -0.67187,-0.1875 -0.60938,0 -1.0625,0.39062 -0.45313,0.39063 -0.45313,1.5 v 3.10938 z m 8.05145,-0.85938 0.125,0.84375 q -0.40625,0.0937 -0.71875,0.0937 -0.53125,0 -0.82812,-0.17187 -0.28125,-0.17188 -0.40625,-0.4375 -0.10938,-0.26563 -0.10938,-1.14063 v -3.28125 h -0.71875 v -0.75 h 0.71875 v -1.40625 l 0.95313,-0.59375 v 2 h 0.98437 v 0.75 h -0.98437 v 3.34375 q 0,0.40625 0.0469,0.53125 0.0625,0.10938 0.17188,0.1875 0.125,0.0625 0.32812,0.0625 0.17188,0 0.4375,-0.0312 z m 4.57007,0.15625 q -0.54687,0.45313 -1.04687,0.64063 -0.48438,0.1875 -1.0625,0.1875 -0.9375,0 -1.45313,-0.45313 -0.5,-0.46875 -0.5,-1.17187 0,-0.42188 0.1875,-0.76563 0.20313,-0.34375 0.5,-0.54687 0.3125,-0.21875 0.70313,-0.32813 0.28125,-0.0781 0.85937,-0.14062 1.17188,-0.14063 1.71875,-0.34375 0.0156,-0.1875 0.0156,-0.25 0,-0.59375 -0.28125,-0.82813 -0.35938,-0.32812 -1.09375,-0.32812 -0.6875,0 -1.01563,0.23437 -0.3125,0.23438 -0.46875,0.84375 l -0.95312,-0.125 q 0.125,-0.60937 0.42187,-0.98437 0.29688,-0.375 0.85938,-0.5625 0.5625,-0.20313 1.29687,-0.20313 0.73438,0 1.1875,0.17188 0.45313,0.17187 0.65625,0.4375 0.21875,0.25 0.3125,0.64062 0.0469,0.25 0.0469,0.90625 v 1.28125 q 0,1.34375 0.0625,1.70313 0.0625,0.35937 0.25,0.6875 h -1.01563 q -0.15625,-0.29688 -0.1875,-0.70313 z m -0.0937,-2.15625 q -0.51562,0.21875 -1.57812,0.35938 -0.59375,0.0937 -0.84375,0.20312 -0.23438,0.0937 -0.375,0.3125 -0.14063,0.20313 -0.14063,0.45313 0,0.39062 0.29688,0.65625 0.29687,0.25 0.85937,0.25 0.5625,0 0.98438,-0.25 0.4375,-0.25 0.65625,-0.67188 0.14062,-0.32812 0.14062,-0.96875 z m -2.17187,-3.54687 0.71875,-1.51563 h 1.26562 l -1.17187,1.51563 z m 4.4577,6.40625 v -5.70313 h 0.85938 v 0.85938 q 0.34375,-0.60938 0.625,-0.79688 0.28125,-0.1875 0.60937,-0.1875 0.5,0 1,0.3125 l -0.32812,0.89063 q -0.35938,-0.20313 -0.71875,-0.20313 -0.3125,0 -0.5625,0.1875 -0.25,0.1875 -0.35938,0.53125 -0.15625,0.51563 -0.15625,1.125 v 2.98438 z m 3.56427,-6.76563 v -1.10937 h 0.96875 v 1.10937 z m 0,6.76563 v -5.70313 h 0.96875 v 5.70313 z m 1.99249,-2.85938 q 0,-1.57812 0.89063,-2.34375 0.73437,-0.625 1.79687,-0.625 1.17188,0 1.90625,0.76563 0.75,0.76562 0.75,2.125 0,1.10937 -0.32812,1.75 -0.32813,0.625 -0.96875,0.96875 -0.625,0.34375 -1.35938,0.34375 -1.20312,0 -1.95312,-0.76563 -0.73438,-0.76562 -0.73438,-2.21875 z m 1,0 q 0,1.10938 0.46875,1.65625 0.48438,0.53125 1.21875,0.53125 0.71875,0 1.1875,-0.54687 0.48438,-0.54688 0.48438,-1.67188 0,-1.04687 -0.48438,-1.59375 -0.48437,-0.54687 -1.1875,-0.54687 -0.73437,0 -1.21875,0.54687 -0.46875,0.53125 -0.46875,1.625 z m 4.91083,1.15625 0.95313,-0.15625 q 0.0781,0.57813 0.4375,0.89063 0.375,0.29687 1.03125,0.29687 0.67187,0 0.98437,-0.26562 0.32813,-0.26563 0.32813,-0.64063 0,-0.32812 -0.28125,-0.51562 -0.20313,-0.125 -0.98438,-0.32813 -1.0625,-0.26562 -1.48437,-0.45312 -0.40625,-0.20313 -0.625,-0.54688 -0.20313,-0.34375 -0.20313,-0.76562 0,-0.39063 0.17188,-0.70313 0.17187,-0.32812 0.48437,-0.54687 0.21875,-0.17188 0.60938,-0.28125 0.39062,-0.10938 0.82812,-0.10938 0.67188,0 1.17188,0.1875 0.51562,0.1875 0.75,0.53125 0.25,0.32813 0.34375,0.875 l -0.9375,0.125 q -0.0781,-0.4375 -0.39063,-0.67187 -0.29687,-0.25 -0.85937,-0.25 -0.67188,0 -0.95313,0.21875 -0.28125,0.21875 -0.28125,0.51562 0,0.1875 0.10938,0.32813 0.125,0.15625 0.375,0.26562 0.14062,0.0469 0.85937,0.25 1.01563,0.26563 1.42188,0.4375 0.40625,0.17188 0.64062,0.51563 0.23438,0.32812 0.23438,0.82812 0,0.48438 -0.28125,0.90625 -0.28125,0.42188 -0.8125,0.65625 -0.53125,0.23438 -1.20313,0.23438 -1.10937,0 -1.70312,-0.45313 -0.57813,-0.46875 -0.73438,-1.375 z m 8.66382,3.89063 v -7.89063 h 0.89062 v 0.73438 q 0.3125,-0.42188 0.70313,-0.64063 0.39062,-0.21875 0.95312,-0.21875 0.71875,0 1.28125,0.375 0.5625,0.375 0.84375,1.0625 0.28125,0.67188 0.28125,1.5 0,0.875 -0.3125,1.57813 -0.3125,0.6875 -0.92187,1.0625 -0.59375,0.375 -1.25,0.375 -0.48438,0 -0.875,-0.20313 -0.375,-0.20312 -0.625,-0.51562 v 2.78125 z m 0.875,-5 q 0,1.09375 0.45312,1.625 0.45313,0.51562 1.07813,0.51562 0.64062,0 1.09375,-0.53125 0.46875,-0.54687 0.46875,-1.70312 0,-1.07813 -0.45313,-1.625 -0.4375,-0.54688 -1.0625,-0.54688 -0.625,0 -1.10937,0.57813 -0.46875,0.57812 -0.46875,1.6875 z m 4.69208,-0.0469 q 0,-1.57812 0.89062,-2.34375 0.73438,-0.625 1.79688,-0.625 1.17187,0 1.90625,0.76563 0.75,0.76562 0.75,2.125 0,1.10937 -0.32813,1.75 -0.32812,0.625 -0.96875,0.96875 -0.625,0.34375 -1.35937,0.34375 -1.20313,0 -1.95313,-0.76563 -0.73437,-0.76562 -0.73437,-2.21875 z m 1,0 q 0,1.10938 0.46875,1.65625 0.48437,0.53125 1.21875,0.53125 0.71875,0 1.1875,-0.54687 0.48437,-0.54688 0.48437,-1.67188 0,-1.04687 -0.48437,-1.59375 -0.48438,-0.54687 -1.1875,-0.54687 -0.73438,0 -1.21875,0.54687 -0.46875,0.53125 -0.46875,1.625 z m 5.28588,2.85938 v -5.70313 h 0.85938 v 0.85938 q 0.34375,-0.60938 0.625,-0.79688 0.28125,-0.1875 0.60937,-0.1875 0.5,0 1,0.3125 l -0.32812,0.89063 q -0.35938,-0.20313 -0.71875,-0.20313 -0.3125,0 -0.5625,0.1875 -0.25,0.1875 -0.35938,0.53125 -0.15625,0.51563 -0.15625,1.125 v 2.98438 z" />
  <path
     style="fill:#000000;fill-rule:nonzero"
     inkscape:connector-curvature="0"
     id="path95"
     d="m 551.85902,271.76608 v -7.89063 h 0.89063 v 0.73438 q 0.3125,-0.42188 0.70312,-0.64063 0.39063,-0.21875 0.95313,-0.21875 0.71875,0 1.28125,0.375 0.5625,0.375 0.84375,1.0625 0.28125,0.67188 0.28125,1.5 0,0.875 -0.3125,1.57813 -0.3125,0.6875 -0.92188,1.0625 -0.59375,0.375 -1.25,0.375 -0.48437,0 -0.875,-0.20313 -0.375,-0.20312 -0.625,-0.51562 v 2.78125 z m 0.875,-5 q 0,1.09375 0.45313,1.625 0.45312,0.51562 1.07812,0.51562 0.64063,0 1.09375,-0.53125 0.46875,-0.54687 0.46875,-1.70312 0,-1.07813 -0.45312,-1.625 -0.4375,-0.54688 -1.0625,-0.54688 -0.625,0 -1.10938,0.57813 -0.46875,0.57812 -0.46875,1.6875 z m 8.78589,2.10937 q -0.54688,0.45313 -1.04688,0.64063 -0.48437,0.1875 -1.0625,0.1875 -0.9375,0 -1.45312,-0.45313 -0.5,-0.46875 -0.5,-1.17187 0,-0.42188 0.1875,-0.76563 0.20312,-0.34375 0.5,-0.54687 0.3125,-0.21875 0.70312,-0.32813 0.28125,-0.0781 0.85938,-0.14062 1.17187,-0.14063 1.71875,-0.34375 0.0156,-0.1875 0.0156,-0.25 0,-0.59375 -0.28125,-0.82813 -0.35937,-0.32812 -1.09375,-0.32812 -0.6875,0 -1.01562,0.23437 -0.3125,0.23438 -0.46875,0.84375 l -0.95313,-0.125 q 0.125,-0.60937 0.42188,-0.98437 0.29687,-0.375 0.85937,-0.5625 0.5625,-0.20313 1.29688,-0.20313 0.73437,0 1.1875,0.17188 0.45312,0.17187 0.65625,0.4375 0.21875,0.25 0.3125,0.64062 0.0469,0.25 0.0469,0.90625 v 1.28125 q 0,1.34375 0.0625,1.70313 0.0625,0.35937 0.25,0.6875 h -1.01562 q -0.15625,-0.29688 -0.1875,-0.70313 z m -0.0937,-2.15625 q -0.51563,0.21875 -1.57813,0.35938 -0.59375,0.0937 -0.84375,0.20312 -0.23437,0.0937 -0.375,0.3125 -0.14062,0.20313 -0.14062,0.45313 0,0.39062 0.29687,0.65625 0.29688,0.25 0.85938,0.25 0.5625,0 0.98437,-0.25 0.4375,-0.25 0.65625,-0.67188 0.14063,-0.32812 0.14063,-0.96875 z m 2.28589,2.85938 v -5.70313 h 0.85937 v 0.85938 q 0.34375,-0.60938 0.625,-0.79688 0.28125,-0.1875 0.60938,-0.1875 0.5,0 1,0.3125 l -0.32813,0.89063 q -0.35937,-0.20313 -0.71875,-0.20313 -0.3125,0 -0.5625,0.1875 -0.25,0.1875 -0.35937,0.53125 -0.15625,0.51563 -0.15625,1.125 v 2.98438 z m 7.28296,-0.70313 q -0.54688,0.45313 -1.04688,0.64063 -0.48437,0.1875 -1.0625,0.1875 -0.9375,0 -1.45312,-0.45313 -0.5,-0.46875 -0.5,-1.17187 0,-0.42188 0.1875,-0.76563 0.20312,-0.34375 0.5,-0.54687 0.3125,-0.21875 0.70312,-0.32813 0.28125,-0.0781 0.85938,-0.14062 1.17187,-0.14063 1.71875,-0.34375 0.0156,-0.1875 0.0156,-0.25 0,-0.59375 -0.28125,-0.82813 -0.35937,-0.32812 -1.09375,-0.32812 -0.6875,0 -1.01562,0.23437 -0.3125,0.23438 -0.46875,0.84375 l -0.95313,-0.125 q 0.125,-0.60937 0.42188,-0.98437 0.29687,-0.375 0.85937,-0.5625 0.5625,-0.20313 1.29688,-0.20313 0.73437,0 1.1875,0.17188 0.45312,0.17187 0.65625,0.4375 0.21875,0.25 0.3125,0.64062 0.0469,0.25 0.0469,0.90625 v 1.28125 q 0,1.34375 0.0625,1.70313 0.0625,0.35937 0.25,0.6875 h -1.01562 q -0.15625,-0.29688 -0.1875,-0.70313 z m -0.0937,-2.15625 q -0.51563,0.21875 -1.57813,0.35938 -0.59375,0.0937 -0.84375,0.20312 -0.23437,0.0937 -0.375,0.3125 -0.14062,0.20313 -0.14062,0.45313 0,0.39062 0.29687,0.65625 0.29688,0.25 0.85938,0.25 0.5625,0 0.98437,-0.25 0.4375,-0.25 0.65625,-0.67188 0.14063,-0.32812 0.14063,-0.96875 z m -2.17188,-3.54687 0.71875,-1.51563 h 1.26563 l -1.17188,1.51563 z m 4.28589,6.875 0.9375,0.14062 q 0.0625,0.4375 0.32813,0.64063 0.35937,0.26562 0.98437,0.26562 0.67188,0 1.03125,-0.26562 0.375,-0.26563 0.5,-0.75 0.0781,-0.29688 0.0781,-1.25 -0.64063,0.75 -1.59375,0.75 -1.17188,0 -1.8125,-0.84375 -0.64063,-0.85938 -0.64063,-2.04688 0,-0.8125 0.29688,-1.5 0.29687,-0.6875 0.84375,-1.0625 0.5625,-0.375 1.32812,-0.375 1,0 1.65625,0.8125 v -0.6875 h 0.89063 v 4.92188 q 0,1.34375 -0.26563,1.89062 -0.26562,0.5625 -0.85937,0.875 -0.59375,0.32813 -1.45313,0.32813 -1.01562,0 -1.64062,-0.46875 -0.625,-0.45313 -0.60938,-1.375 z m 0.79688,-3.42188 q 0,1.125 0.4375,1.64063 0.45312,0.51562 1.125,0.51562 0.67187,0 1.125,-0.51562 0.45312,-0.51563 0.45312,-1.60938 0,-1.04687 -0.46875,-1.57812 -0.46875,-0.53125 -1.125,-0.53125 -0.64062,0 -1.09375,0.53125 -0.45312,0.51562 -0.45312,1.54687 z m 5.30151,2.95313 v -5.70313 h 0.85937 v 0.85938 q 0.34375,-0.60938 0.625,-0.79688 0.28125,-0.1875 0.60938,-0.1875 0.5,0 1,0.3125 l -0.32813,0.89063 q -0.35937,-0.20313 -0.71875,-0.20313 -0.3125,0 -0.5625,0.1875 -0.25,0.1875 -0.35937,0.53125 -0.15625,0.51563 -0.15625,1.125 v 2.98438 z m 7.28296,-0.70313 q -0.54688,0.45313 -1.04688,0.64063 -0.48437,0.1875 -1.0625,0.1875 -0.9375,0 -1.45312,-0.45313 -0.5,-0.46875 -0.5,-1.17187 0,-0.42188 0.1875,-0.76563 0.20312,-0.34375 0.5,-0.54687 0.3125,-0.21875 0.70312,-0.32813 0.28125,-0.0781 0.85938,-0.14062 1.17187,-0.14063 1.71875,-0.34375 0.0156,-0.1875 0.0156,-0.25 0,-0.59375 -0.28125,-0.82813 -0.35937,-0.32812 -1.09375,-0.32812 -0.6875,0 -1.01562,0.23437 -0.3125,0.23438 -0.46875,0.84375 l -0.95313,-0.125 q 0.125,-0.60937 0.42188,-0.98437 0.29687,-0.375 0.85937,-0.5625 0.5625,-0.20313 1.29688,-0.20313 0.73437,0 1.1875,0.17188 0.45312,0.17187 0.65625,0.4375 0.21875,0.25 0.3125,0.64062 0.0469,0.25 0.0469,0.90625 v 1.28125 q 0,1.34375 0.0625,1.70313 0.0625,0.35937 0.25,0.6875 h -1.01562 q -0.15625,-0.29688 -0.1875,-0.70313 z m -0.0937,-2.15625 q -0.51563,0.21875 -1.57813,0.35938 -0.59375,0.0937 -0.84375,0.20312 -0.23437,0.0937 -0.375,0.3125 -0.14062,0.20313 -0.14062,0.45313 0,0.39062 0.29687,0.65625 0.29688,0.25 0.85938,0.25 0.5625,0 0.98437,-0.25 0.4375,-0.25 0.65625,-0.67188 0.14063,-0.32812 0.14063,-0.96875 z m 2.52026,2.85938 v -4.95313 h -0.84375 v -0.75 h 0.84375 v -0.60937 q 0,-0.57813 0.10938,-0.85938 0.14062,-0.375 0.48437,-0.60937 0.35938,-0.23438 0.98438,-0.23438 0.40625,0 0.90625,0.10938 l -0.14063,0.84375 q -0.3125,-0.0625 -0.57812,-0.0625 -0.4375,0 -0.625,0.1875 -0.17188,0.1875 -0.17188,0.70312 v 0.53125 h 1.10938 v 0.75 h -1.10938 v 4.95313 z m 2.36688,-2.85938 q 0,-1.57812 0.89063,-2.34375 0.73437,-0.625 1.79687,-0.625 1.17188,0 1.90625,0.76563 0.75,0.76562 0.75,2.125 0,1.10937 -0.32812,1.75 -0.32813,0.625 -0.96875,0.96875 -0.625,0.34375 -1.35938,0.34375 -1.20312,0 -1.95312,-0.76563 -0.73438,-0.76562 -0.73438,-2.21875 z m 1,0 q 0,1.10938 0.46875,1.65625 0.48438,0.53125 1.21875,0.53125 0.71875,0 1.1875,-0.54687 0.48438,-0.54688 0.48438,-1.67188 0,-1.04687 -0.48438,-1.59375 -0.48437,-0.54687 -1.1875,-0.54687 -0.73437,0 -1.21875,0.54687 -0.46875,0.53125 -0.46875,1.625 z m 4.91089,1.15625 0.95313,-0.15625 q 0.0781,0.57813 0.4375,0.89063 0.375,0.29687 1.03125,0.29687 0.67187,0 0.98437,-0.26562 0.32813,-0.26563 0.32813,-0.64063 0,-0.32812 -0.28125,-0.51562 -0.20313,-0.125 -0.98438,-0.32813 -1.0625,-0.26562 -1.48437,-0.45312 -0.40625,-0.20313 -0.625,-0.54688 -0.20313,-0.34375 -0.20313,-0.76562 0,-0.39063 0.17188,-0.70313 0.17187,-0.32812 0.48437,-0.54687 0.21875,-0.17188 0.60938,-0.28125 0.39062,-0.10938 0.82812,-0.10938 0.67188,0 1.17188,0.1875 0.51562,0.1875 0.75,0.53125 0.25,0.32813 0.34375,0.875 l -0.9375,0.125 q -0.0781,-0.4375 -0.39063,-0.67187 -0.29687,-0.25 -0.85937,-0.25 -0.67188,0 -0.95313,0.21875 -0.28125,0.21875 -0.28125,0.51562 0,0.1875 0.10938,0.32813 0.125,0.15625 0.375,0.26562 0.14062,0.0469 0.85937,0.25 1.01563,0.26563 1.42188,0.4375 0.40625,0.17188 0.64062,0.51563 0.23438,0.32812 0.23438,0.82812 0,0.48438 -0.28125,0.90625 -0.28125,0.42188 -0.8125,0.65625 -0.53125,0.23438 -1.20313,0.23438 -1.10937,0 -1.70312,-0.45313 -0.57813,-0.46875 -0.73438,-1.375 z m 6.34375,4.01563 h -0.6875 q 1.59375,-2.57813 1.59375,-5.15625 0,-1.01563 -0.21875,-2 -0.1875,-0.8125 -0.51562,-1.54688 -0.20313,-0.48437 -0.85938,-1.625 h 0.6875 q 1.01563,1.35938 1.5,2.71875 0.40625,1.17188 0.40625,2.4375 0,1.45313 -0.5625,2.8125 -0.54687,1.35938 -1.34375,2.35938 z m 3.17359,-2.3125 v -1.09375 h 1.09375 v 1.09375 q 0,0.60937 -0.21875,0.98437 -0.20313,0.375 -0.67188,0.57813 l -0.28125,-0.42188 q 0.3125,-0.125 0.45313,-0.39062 0.15625,-0.26563 0.17187,-0.75 z" />
  <path
     style="fill:#000000;fill-rule:nonzero"
     inkscape:connector-curvature="0"
     id="path97"
     d="m 551.85902,284.76608 v -7.89063 h 0.89063 v 0.73438 q 0.3125,-0.42188 0.70312,-0.64063 0.39063,-0.21875 0.95313,-0.21875 0.71875,0 1.28125,0.375 0.5625,0.375 0.84375,1.0625 0.28125,0.67188 0.28125,1.5 0,0.875 -0.3125,1.57813 -0.3125,0.6875 -0.92188,1.0625 -0.59375,0.375 -1.25,0.375 -0.48437,0 -0.875,-0.20313 -0.375,-0.20312 -0.625,-0.51562 v 2.78125 z m 0.875,-5 q 0,1.09375 0.45313,1.625 0.45312,0.51562 1.07812,0.51562 0.64063,0 1.09375,-0.53125 0.46875,-0.54687 0.46875,-1.70312 0,-1.07813 -0.45312,-1.625 -0.4375,-0.54688 -1.0625,-0.54688 -0.625,0 -1.10938,0.57813 -0.46875,0.57812 -0.46875,1.6875 z m 5.05151,2.8125 v -5.70313 h 0.85938 v 0.85938 q 0.34375,-0.60938 0.625,-0.79688 0.28125,-0.1875 0.60937,-0.1875 0.5,0 1,0.3125 l -0.32812,0.89063 q -0.35938,-0.20313 -0.71875,-0.20313 -0.3125,0 -0.5625,0.1875 -0.25,0.1875 -0.35938,0.53125 -0.15625,0.51563 -0.15625,1.125 v 2.98438 z m 3.56421,-6.76563 v -1.10937 h 0.96875 v 1.10937 z m 0,6.76563 v -5.70313 h 0.96875 v 5.70313 z m 1.9925,-2.85938 q 0,-1.57812 0.89062,-2.34375 0.73438,-0.625 1.79688,-0.625 1.17187,0 1.90625,0.76563 0.75,0.76562 0.75,2.125 0,1.10937 -0.32813,1.75 -0.32812,0.625 -0.96875,0.96875 -0.625,0.34375 -1.35937,0.34375 -1.20313,0 -1.95313,-0.76563 -0.73437,-0.76562 -0.73437,-2.21875 z m 1,0 q 0,1.10938 0.46875,1.65625 0.48437,0.53125 1.21875,0.53125 0.71875,0 1.1875,-0.54687 0.48437,-0.54688 0.48437,-1.67188 0,-1.04687 -0.48437,-1.59375 -0.48438,-0.54687 -1.1875,-0.54687 -0.73438,0 -1.21875,0.54687 -0.46875,0.53125 -0.46875,1.625 z m 5.28588,2.85938 v -5.70313 h 0.85938 v 0.85938 q 0.34375,-0.60938 0.625,-0.79688 0.28125,-0.1875 0.60937,-0.1875 0.5,0 1,0.3125 l -0.32812,0.89063 q -0.35938,-0.20313 -0.71875,-0.20313 -0.3125,0 -0.5625,0.1875 -0.25,0.1875 -0.35938,0.53125 -0.15625,0.51563 -0.15625,1.125 v 2.98438 z m 3.56421,-6.76563 v -1.10937 h 0.96875 v 1.10937 z m 0,6.76563 v -5.70313 h 0.96875 v 5.70313 z m 1.85187,0 v -0.78125 l 3.625,-4.17188 q -0.60937,0.0312 -1.09375,0.0312 h -2.3125 v -0.78125 h 4.65625 v 0.64063 l -3.09375,3.625 -0.59375,0.65625 q 0.65625,-0.0469 1.21875,-0.0469 h 2.64063 v 0.82813 z m 9.5625,-0.70313 q -0.54687,0.45313 -1.04687,0.64063 -0.48438,0.1875 -1.0625,0.1875 -0.9375,0 -1.45313,-0.45313 -0.5,-0.46875 -0.5,-1.17187 0,-0.42188 0.1875,-0.76563 0.20313,-0.34375 0.5,-0.54687 0.3125,-0.21875 0.70313,-0.32813 0.28125,-0.0781 0.85937,-0.14062 1.17188,-0.14063 1.71875,-0.34375 0.0156,-0.1875 0.0156,-0.25 0,-0.59375 -0.28125,-0.82813 -0.35938,-0.32812 -1.09375,-0.32812 -0.6875,0 -1.01563,0.23437 -0.3125,0.23438 -0.46875,0.84375 l -0.95312,-0.125 q 0.125,-0.60937 0.42187,-0.98437 0.29688,-0.375 0.85938,-0.5625 0.5625,-0.20313 1.29687,-0.20313 0.73438,0 1.1875,0.17188 0.45313,0.17187 0.65625,0.4375 0.21875,0.25 0.3125,0.64062 0.0469,0.25 0.0469,0.90625 v 1.28125 q 0,1.34375 0.0625,1.70313 0.0625,0.35937 0.25,0.6875 h -1.01563 q -0.15625,-0.29688 -0.1875,-0.70313 z m -0.0937,-2.15625 q -0.51562,0.21875 -1.57812,0.35938 -0.59375,0.0937 -0.84375,0.20312 -0.23438,0.0937 -0.375,0.3125 -0.14063,0.20313 -0.14063,0.45313 0,0.39062 0.29688,0.65625 0.29687,0.25 0.85937,0.25 0.5625,0 0.98438,-0.25 0.4375,-0.25 0.65625,-0.67188 0.14062,-0.32812 0.14062,-0.96875 z m 6.02026,0.76563 0.9375,0.125 q -0.14062,0.98437 -0.79687,1.54687 -0.64063,0.54688 -1.5625,0.54688 -1.17188,0 -1.89063,-0.76563 -0.70312,-0.76562 -0.70312,-2.1875 0,-0.92187 0.29687,-1.60937 0.3125,-0.70313 0.9375,-1.04688 0.625,-0.34375 1.35938,-0.34375 0.92187,0 1.51562,0.46875 0.59375,0.46875 0.76563,1.32813 l -0.95313,0.14062 q -0.125,-0.5625 -0.46875,-0.84375 -0.34375,-0.29687 -0.82812,-0.29687 -0.71875,0 -1.1875,0.53125 -0.45313,0.51562 -0.45313,1.64062 0,1.15625 0.4375,1.67188 0.4375,0.51562 1.15625,0.51562 0.5625,0 0.9375,-0.34375 0.39063,-0.34375 0.5,-1.07812 z m -2.29687,2.92187 0.28125,-0.95312 h 0.71875 l -0.17188,0.57812 q 0.45313,0.0469 0.6875,0.28125 0.23438,0.23438 0.23438,0.5 0,0.40625 -0.39063,0.71875 -0.39062,0.3125 -1.17187,0.3125 -0.4375,0 -0.76563,-0.0625 l 0.0625,-0.64062 q 0.34375,0.0312 0.5,0.0312 0.5,0 0.70313,-0.14063 0.15625,-0.10937 0.15625,-0.26562 0,-0.0937 -0.0625,-0.17188 -0.0625,-0.0781 -0.23438,-0.14062 -0.15625,-0.0469 -0.54687,-0.0469 z m 7.625,-1.53125 q -0.54688,0.45313 -1.04688,0.64063 -0.48437,0.1875 -1.0625,0.1875 -0.9375,0 -1.45312,-0.45313 -0.5,-0.46875 -0.5,-1.17187 0,-0.42188 0.1875,-0.76563 0.20312,-0.34375 0.5,-0.54687 0.3125,-0.21875 0.70312,-0.32813 0.28125,-0.0781 0.85938,-0.14062 1.17187,-0.14063 1.71875,-0.34375 0.0156,-0.1875 0.0156,-0.25 0,-0.59375 -0.28125,-0.82813 -0.35937,-0.32812 -1.09375,-0.32812 -0.6875,0 -1.01562,0.23437 -0.3125,0.23438 -0.46875,0.84375 l -0.95313,-0.125 q 0.125,-0.60937 0.42188,-0.98437 0.29687,-0.375 0.85937,-0.5625 0.5625,-0.20313 1.29688,-0.20313 0.73437,0 1.1875,0.17188 0.45312,0.17187 0.65625,0.4375 0.21875,0.25 0.3125,0.64062 0.0469,0.25 0.0469,0.90625 v 1.28125 q 0,1.34375 0.0625,1.70313 0.0625,0.35937 0.25,0.6875 h -1.01562 q -0.15625,-0.29688 -0.1875,-0.70313 z m -0.0937,-2.15625 q -0.51563,0.21875 -1.57813,0.35938 -0.59375,0.0937 -0.84375,0.20312 -0.23437,0.0937 -0.375,0.3125 -0.14062,0.20313 -0.14062,0.45313 0,0.39062 0.29687,0.65625 0.29688,0.25 0.85938,0.25 0.5625,0 0.98437,-0.25 0.4375,-0.25 0.65625,-0.67188 0.14063,-0.32812 0.14063,-0.96875 z m -3.32813,-3.6875 q 0,-0.5625 0.3125,-0.89062 0.3125,-0.32813 0.78125,-0.32813 0.34375,0 0.90625,0.28125 0.32813,0.15625 0.51563,0.15625 0.17187,0 0.25,-0.0937 0.0937,-0.0937 0.14062,-0.35937 h 0.6875 q -0.0156,0.60937 -0.3125,0.92187 -0.28125,0.29688 -0.73437,0.29688 -0.34375,0 -0.89063,-0.29688 -0.35937,-0.20312 -0.53125,-0.20312 -0.17187,0 -0.29687,0.14062 -0.10938,0.125 -0.10938,0.375 z m 5.25464,3.6875 q 0,-1.57812 0.89063,-2.34375 0.73437,-0.625 1.79687,-0.625 1.17188,0 1.90625,0.76563 0.75,0.76562 0.75,2.125 0,1.10937 -0.32812,1.75 -0.32813,0.625 -0.96875,0.96875 -0.625,0.34375 -1.35938,0.34375 -1.20312,0 -1.95312,-0.76563 -0.73438,-0.76562 -0.73438,-2.21875 z m 1,0 q 0,1.10938 0.46875,1.65625 0.48438,0.53125 1.21875,0.53125 0.71875,0 1.1875,-0.54687 0.48438,-0.54688 0.48438,-1.67188 0,-1.04687 -0.48438,-1.59375 -0.48437,-0.54687 -1.1875,-0.54687 -0.73437,0 -1.21875,0.54687 -0.46875,0.53125 -0.46875,1.625 z m 11.94965,2.85938 v -0.71875 q -0.53125,0.84375 -1.59375,0.84375 -0.67188,0 -1.25,-0.375 -0.57813,-0.375 -0.89063,-1.04688 -0.3125,-0.67187 -0.3125,-1.54687 0,-0.85938 0.28125,-1.54688 0.29688,-0.70312 0.85938,-1.0625 0.5625,-0.375 1.26562,-0.375 0.51563,0 0.92188,0.21875 0.40625,0.21875 0.65625,0.5625 v -2.82812 h 0.96875 v 7.875 z m -3.04688,-2.84375 q 0,1.09375 0.45313,1.64062 0.46875,0.53125 1.09375,0.53125 0.64062,0 1.07812,-0.51562 0.4375,-0.51563 0.4375,-1.57813 0,-1.17187 -0.45312,-1.71875 -0.4375,-0.54687 -1.10938,-0.54687 -0.64062,0 -1.07812,0.53125 -0.42188,0.51562 -0.42188,1.65625 z m 9.17646,1 1,0.125 q -0.23438,0.875 -0.875,1.35937 -0.64063,0.48438 -1.625,0.48438 -1.25,0 -1.98438,-0.76563 -0.73437,-0.76562 -0.73437,-2.15625 0,-1.45312 0.73437,-2.23437 0.75,-0.79688 1.92188,-0.79688 1.15625,0 1.875,0.78125 0.71875,0.76563 0.71875,2.1875 0,0.0781 0,0.25 h -4.25 q 0.0469,0.9375 0.51562,1.4375 0.48438,0.5 1.20313,0.5 0.53125,0 0.90625,-0.26562 0.375,-0.28125 0.59375,-0.90625 z m -3.17188,-1.5625 h 3.1875 q -0.0625,-0.71875 -0.35937,-1.07813 -0.46875,-0.54687 -1.20313,-0.54687 -0.67187,0 -1.125,0.45312 -0.45312,0.4375 -0.5,1.17188 z" />
  <path
     style="fill:#000000;fill-rule:nonzero"
     inkscape:connector-curvature="0"
     id="path99"
     d="m 551.87466,288.81296 v -1.10938 h 0.96875 v 1.10938 z m 0,6.76562 v -5.70312 h 0.96875 v 5.70312 z m 6.05499,0 v -0.71875 q -0.53125,0.84375 -1.59375,0.84375 -0.67187,0 -1.25,-0.375 -0.57812,-0.375 -0.89062,-1.04687 -0.3125,-0.67188 -0.3125,-1.54688 0,-0.85937 0.28125,-1.54687 0.29687,-0.70313 0.85937,-1.0625 0.5625,-0.375 1.26563,-0.375 0.51562,0 0.92187,0.21875 0.40625,0.21875 0.65625,0.5625 v -2.82813 h 0.96875 v 7.875 z m -3.04687,-2.84375 q 0,1.09375 0.45312,1.64063 0.46875,0.53125 1.09375,0.53125 0.64063,0 1.07813,-0.51563 0.4375,-0.51562 0.4375,-1.57812 0,-1.17188 -0.45313,-1.71875 -0.4375,-0.54688 -1.10937,-0.54688 -0.64063,0 -1.07813,0.53125 -0.42187,0.51563 -0.42187,1.65625 z m 9.17651,1 1,0.125 q -0.23437,0.875 -0.875,1.35938 -0.64062,0.48437 -1.625,0.48437 -1.25,0 -1.98437,-0.76562 -0.73438,-0.76563 -0.73438,-2.15625 0,-1.45313 0.73438,-2.23438 0.75,-0.79687 1.92187,-0.79687 1.15625,0 1.875,0.78125 0.71875,0.76562 0.71875,2.1875 0,0.0781 0,0.25 h -4.25 q 0.0469,0.9375 0.51563,1.4375 0.48437,0.5 1.20312,0.5 0.53125,0 0.90625,-0.26563 0.375,-0.28125 0.59375,-0.90625 z m -3.17187,-1.5625 h 3.1875 q -0.0625,-0.71875 -0.35938,-1.07812 -0.46875,-0.54688 -1.20312,-0.54688 -0.67188,0 -1.125,0.45313 -0.45313,0.4375 -0.5,1.17187 z m 5.2077,-3.35937 v -1.10938 h 0.96875 v 1.10938 z m 0,6.76562 v -5.70312 h 0.96875 v 5.70312 z m 6.08624,-0.70312 q -0.54687,0.45312 -1.04687,0.64062 -0.48438,0.1875 -1.0625,0.1875 -0.9375,0 -1.45313,-0.45312 -0.5,-0.46875 -0.5,-1.17188 0,-0.42187 0.1875,-0.76562 0.20313,-0.34375 0.5,-0.54688 0.3125,-0.21875 0.70313,-0.32812 0.28125,-0.0781 0.85937,-0.14063 1.17188,-0.14062 1.71875,-0.34375 0.0156,-0.1875 0.0156,-0.25 0,-0.59375 -0.28125,-0.82812 -0.35938,-0.32813 -1.09375,-0.32813 -0.6875,0 -1.01563,0.23438 -0.3125,0.23437 -0.46875,0.84375 l -0.95312,-0.125 q 0.125,-0.60938 0.42187,-0.98438 0.29688,-0.375 0.85938,-0.5625 0.5625,-0.20312 1.29687,-0.20312 0.73438,0 1.1875,0.17187 0.45313,0.17188 0.65625,0.4375 0.21875,0.25 0.3125,0.64063 0.0469,0.25 0.0469,0.90625 v 1.28125 q 0,1.34375 0.0625,1.70312 0.0625,0.35938 0.25,0.6875 h -1.01563 q -0.15625,-0.29687 -0.1875,-0.70312 z m -0.0937,-2.15625 q -0.51562,0.21875 -1.57812,0.35937 -0.59375,0.0937 -0.84375,0.20313 -0.23438,0.0937 -0.375,0.3125 -0.14063,0.20312 -0.14063,0.45312 0,0.39063 0.29688,0.65625 0.29687,0.25 0.85937,0.25 0.5625,0 0.98438,-0.25 0.4375,-0.25 0.65625,-0.67187 0.14062,-0.32813 0.14062,-0.96875 z m 1.91089,1.15625 0.95313,-0.15625 q 0.0781,0.57812 0.4375,0.89062 0.375,0.29688 1.03125,0.29688 0.67187,0 0.98437,-0.26563 0.32813,-0.26562 0.32813,-0.64062 0,-0.32813 -0.28125,-0.51563 -0.20313,-0.125 -0.98438,-0.32812 -1.0625,-0.26563 -1.48437,-0.45313 -0.40625,-0.20312 -0.625,-0.54687 -0.20313,-0.34375 -0.20313,-0.76563 0,-0.39062 0.17188,-0.70312 0.17187,-0.32813 0.48437,-0.54688 0.21875,-0.17187 0.60938,-0.28125 0.39062,-0.10937 0.82812,-0.10937 0.67188,0 1.17188,0.1875 0.51562,0.1875 0.75,0.53125 0.25,0.32812 0.34375,0.875 l -0.9375,0.125 q -0.0781,-0.4375 -0.39063,-0.67188 -0.29687,-0.25 -0.85937,-0.25 -0.67188,0 -0.95313,0.21875 -0.28125,0.21875 -0.28125,0.51563 0,0.1875 0.10938,0.32812 0.125,0.15625 0.375,0.26563 0.14062,0.0469 0.85937,0.25 1.01563,0.26562 1.42188,0.4375 0.40625,0.17187 0.64062,0.51562 0.23438,0.32813 0.23438,0.82813 0,0.48437 -0.28125,0.90625 -0.28125,0.42187 -0.8125,0.65625 -0.53125,0.23437 -1.20313,0.23437 -1.10937,0 -1.70312,-0.45312 -0.57813,-0.46875 -0.73438,-1.375 z m 6.34375,4.01562 h -0.6875 q 1.59375,-2.57812 1.59375,-5.15625 0,-1.01562 -0.21875,-2 -0.1875,-0.8125 -0.51562,-1.54687 -0.20313,-0.48438 -0.85938,-1.625 h 0.6875 q 1.01563,1.35937 1.5,2.71875 0.40625,1.17187 0.40625,2.4375 0,1.45312 -0.5625,2.8125 -0.54687,1.35937 -1.34375,2.35937 z" />
</svg>
